<svg style="position: absolute; width: 0; height: 0; overflow: hidden;" version="1.1" xmlns="http://www.w3.org/2000/svg" xmlns:xlink="http://www.w3.org/1999/xlink">
<defs>
<symbol id="cta-icon-units" viewBox="0 0 64 64">
<title>units</title>
<path fill="currentColor"  d="M61.39 21.42l-29.39 12.58-29.39-12.58c-3.48-2.56-3.48-6.76 0-9.32l23.060-10.1c1.778-1.204 3.97-1.923 6.33-1.923s4.552 0.718 6.37 1.949l23.020 10.074c3.48 2.56 3.48 6.76 0 9.32z"></path>
<path   d="M32 48.89c-0.001 0-0.002 0-0.002 0-0.646 0-1.257-0.148-1.802-0.411l-27.975-13.289c-1.416-0.683-2.376-2.107-2.376-3.755 0-2.295 1.861-4.155 4.155-4.155 0.647 0 1.259 0.148 1.805 0.411l26.195 12.439 26.25-12.45c0.521-0.253 1.133-0.401 1.78-0.401 2.295 0 4.156 1.86 4.156 4.155 0 1.648-0.96 3.072-2.351 3.744l-28.025 13.311c-0.52 0.252-1.132 0.4-1.778 0.4-0.011 0-0.023-0-0.034-0z"></path>
<path   d="M32 63.93c-0.001 0-0.002 0-0.002 0-0.646 0-1.257-0.148-1.802-0.411l-27.975-13.289c-1.416-0.683-2.376-2.107-2.376-3.755 0-2.295 1.861-4.155 4.155-4.155 0.647 0 1.259 0.148 1.805 0.411l26.195 12.449 26.25-12.46c0.521-0.253 1.133-0.401 1.78-0.401 2.295 0 4.156 1.861 4.156 4.156 0 1.648-0.96 3.072-2.351 3.744l-28.025 13.311c-0.52 0.252-1.132 0.4-1.778 0.4-0.011 0-0.023-0-0.034-0z"></path>
</symbol>
<symbol id="cta-icon-facebook" viewBox="0 0 64 64">
<title>facebook</title>
<path   d="M44.26 64h-24.52c-10.886-0.006-19.712-8.817-19.74-19.697v-44.303h44.26c10.889 0.006 19.717 8.823 19.74 19.708v24.582c-0.023 10.887-8.851 19.704-19.739 19.71zM7.9 7.87v36.43c0.011 6.532 5.307 11.824 11.839 11.83h24.521c6.537-0.006 11.834-5.303 11.84-11.839v-24.581c-0.006-6.537-5.303-11.834-11.839-11.84h-36.361z"></path>
<path fill="currentColor"  d="M27.15 21.56q0-0.32 0.090-1.37c0.012-0.602 0.299-1.471 0.772-2.21 0.029-0.312 1.013-1.373 2.244-2.033 1.229-0.613 2.637-0.962 4.127-0.962 0.192 0 0.383 0.006 0.572 0.017l5.594-0.001v6.13h-4.12c-0.432 0.003-0.833 0.177-1.131 0.461-0.251 0.16-0.461 0.476-0.509 0.843l-0.001 3.816h5.76c-0.060 0.75-0.13 1.47-0.2 2.17l-0.23 1.85q-0.12 0.94-0.28 1.73h-5.1v17h-7.59v-17h-3.7v-5.75h3.7v-4.69z"></path>
</symbol>
<symbol id="cta-icon-health-library" viewBox="0 0 64 64">
<title>health-library</title>
<path fill="currentColor"  d="M11.89 24.24l7.73-14.76 12.31 23.52 4.15-8.72h14v-17.23l13.92 13.6s0-0.060 0-0.090c-0.014-9.693-7.875-17.546-17.57-17.546-5.953 0-11.215 2.961-14.393 7.49-3.255-4.511-8.506-7.458-14.445-7.458-9.704 0-17.57 7.866-17.57 17.57 0 1.284 0.138 2.535 0.399 3.74l11.479-0.116z"></path>
<path fill="currentColor"  d="M50.060 30.24h-10.19l-7.68 16.13-12.57-24-4.1 7.83h-12.6c-0.797-0.681 1.19 2.053 3.754 4.092l-0.034 0.028 25.36 26.68 18.060-19v-11.76z"></path>
<path   d="M53.85 15.65l10.15 10.59-10.15 10.6v-21.19z"></path>
</symbol>
<symbol id="cta-icon-information" viewBox="0 0 64 64">
<title>information</title>
<path   d="M32 9c12.703 0 23 10.297 23 23s-10.297 23-23 23c-12.703 0-23-10.297-23-23s10.297-23 23-23zM32 0c-17.673 0-32 14.327-32 32s14.327 32 32 32c17.673 0 32-14.327 32-32s-14.327-32-32-32v0z"></path>
<path fill="currentColor"  d="M32 48.17c-2.761 0-5-2.239-5-5v-8.34c0-2.761 2.239-5 5-5s5 2.239 5 5v8.33c0 0.003 0 0.007 0 0.010 0 2.761-2.239 5-5 5 0 0 0 0 0 0z"></path>
<path fill="currentColor"  d="M37 20.83c0 2.761-2.239 5-5 5s-5-2.239-5-5c0-2.761 2.239-5 5-5s5 2.239 5 5z"></path>
</symbol>
<symbol id="cta-icon-instagram" viewBox="0 0 64 64">
<title>instagram</title>
<path   d="M32 5.77c8.54 0 9.56 0 12.93 0.19 2.139 0.026 4.177 0.427 6.062 1.141 1.321 0.5 2.55 1.314 3.556 2.347 1.037 1.010 1.852 2.239 2.37 3.614 0.683 1.834 1.071 3.874 1.083 6.003 0.15 3.375 0.19 4.395 0.19 12.935s0 9.56-0.19 12.93c-0.026 2.139-0.427 4.177-1.141 6.062-1.060 2.675-3.233 4.848-5.958 5.923-1.825 0.681-3.851 1.068-5.964 1.085-3.377 0.15-4.397 0.19-12.937 0.19s-9.56 0-12.93-0.19c-2.139-0.026-4.177-0.427-6.062-1.141-1.321-0.5-2.55-1.314-3.556-2.347-1.037-1.010-1.852-2.239-2.37-3.614-0.679-1.821-1.066-3.847-1.083-5.961-0.2-3.377-0.23-4.397-0.23-12.937s0-9.56 0.19-12.93c0.026-2.139 0.427-4.177 1.141-6.062 0.5-1.321 1.314-2.55 2.347-3.556 1.010-1.037 2.239-1.852 3.614-2.37 1.834-0.683 3.874-1.071 6.003-1.083 3.375-0.15 4.395-0.19 12.935-0.19zM32 0c-8.69 0-9.78 0-13.19 0.19-2.819 0.054-5.496 0.596-7.971 1.544-2.042 0.799-3.92 2.053-5.466 3.633-1.585 1.552-2.84 3.43-3.656 5.526-0.931 2.421-1.473 5.098-1.526 7.894-0.19 3.433-0.19 4.523-0.19 13.213s0 9.78 0.19 13.19c0.054 2.819 0.595 5.496 1.544 7.971 0.794 2.058 2.049 3.949 3.634 5.507 1.554 1.569 3.431 2.811 5.525 3.616 2.409 0.926 5.072 1.468 7.853 1.526 3.475 0.19 4.565 0.19 13.255 0.19s9.78 0 13.19-0.19c2.819-0.054 5.496-0.596 7.971-1.544 4.128-1.645 7.46-4.977 9.12-9.155 0.929-2.413 1.47-5.075 1.528-7.856 0.19-3.475 0.19-4.565 0.19-13.255s0-9.78-0.19-13.19c-0.054-2.819-0.596-5.496-1.544-7.971-0.794-2.058-2.049-3.949-3.634-5.507-1.554-1.569-3.431-2.811-5.525-3.616-2.422-0.931-5.098-1.473-7.895-1.526-3.433-0.19-4.523-0.19-13.213-0.19z"></path>
<path   d="M32 15.57c-9.074 0-16.43 7.356-16.43 16.43s7.356 16.43 16.43 16.43c9.074 0 16.43-7.356 16.43-16.43s-7.356-16.43-16.43-16.43zM32 42.67c-5.893 0-10.67-4.777-10.67-10.67s4.777-10.67 10.67-10.67c5.893 0 10.67 4.777 10.67 10.67s-4.777 10.67-10.67 10.67z"></path>
<path fill="currentColor"  d="M52.92 14.92c0 2.121-1.719 3.84-3.84 3.84s-3.84-1.719-3.84-3.84c0-2.121 1.719-3.84 3.84-3.84s3.84 1.719 3.84 3.84z"></path>
</symbol>
<symbol id="cta-icon-linkedin" viewBox="0 0 64 64">
<title>linkedin</title>
<path   d="M44.29 64h-24.58c-10.874-0.028-19.682-8.836-19.71-19.707v-44.293h44.29c10.872 0.034 19.676 8.838 19.71 19.707v24.583c-0.034 10.872-8.838 19.676-19.707 19.71zM7.87 7.87v36.42c0.011 6.534 5.305 11.829 11.839 11.84h24.581c6.534-0.011 11.829-5.306 11.84-11.839v-24.581c-0.011-6.534-5.306-11.829-11.839-11.84h-36.421z"></path>
<path fill="currentColor"  d="M49 35.67v12.57h-7.29v-11.72c0-2.95-1.050-5-3.69-5-1.715 0.011-3.178 1.109-3.731 2.642-0.188 0.521-0.291 1.091-0.291 1.684 0 0.054 0.001 0.108 0.003 0.161l-0 12.232h-7.25s0.1-19.87 0-21.92h7.25v3.11c1.274-2.183 3.605-3.626 6.273-3.626 0.104 0 0.208 0.002 0.311 0.007 4.785-0 8.375 3.13 8.375 9.869v0zM19.12 15.76c-0.096-0.009-0.208-0.014-0.321-0.014-2.099 0-3.8 1.701-3.8 3.8s1.701 3.8 3.8 3.8c0.078 0 0.155-0.002 0.231-0.007l-0.011 0c0.082 0.006 0.179 0.010 0.276 0.010 2.099 0 3.8-1.701 3.8-3.8s-1.701-3.8-3.8-3.8c-0.097 0-0.193 0.004-0.288 0.011l0.013-0.001zM15.43 48.24h7.29v-21.92h-7.29v21.92z"></path>
</symbol>
<symbol id="cta-icon-feedback" viewBox="0 0 64 64">
<title>feedback</title>
<path fill="currentColor"  d="M47.71 48.31l-1.86 1.44v7h-32.73c-3.217-0.006-5.824-2.612-5.83-5.829v-43.571h38.56v7.58l7.29-5.64v-9.23h-53.14v50.82c0 7.246 5.874 13.12 13.12 13.12h40v-19.89z"></path>
<path   d="M35.22 33.070l6.61 8.54-9.17 0.26 2.56-8.8z"></path>
<path fill="currentColor"  d="M35.21 33.070l20.39-15.78c0.824-0.642 1.874-1.029 3.014-1.029 1.579 0 2.985 0.743 3.888 1.898l0.398 0.511c0.684 0.878 1.096 1.996 1.096 3.21 0 1.665-0.776 3.15-1.985 4.112l-20.191 15.618z"></path>
<path   d="M33.2 23.34h-14.91c-1.508 0-2.73-1.222-2.73-2.73s1.222-2.73 2.73-2.73h14.91c1.508 0 2.73 1.222 2.73 2.73s-1.222 2.73-2.73 2.73z"></path>
<path   d="M27.7 34.77h-9.41c-1.508 0-2.73-1.222-2.73-2.73s1.222-2.73 2.73-2.73h9.41c1.508 0 2.73 1.222 2.73 2.73s-1.222 2.73-2.73 2.73z"></path>
<path   d="M24.57 46.21h-6.28c-1.508 0-2.73-1.222-2.73-2.73s1.222-2.73 2.73-2.73h6.28c1.508 0 2.73 1.222 2.73 2.73s-1.222 2.73-2.73 2.73z"></path>
</symbol>
<symbol id="cta-icon-website" viewBox="0 0 64 64">
<title>website</title>
<path fill="currentColor"  d="M59 59.63h-54c-2.761 0-5-2.239-5-5s2.239-5 5-5h54c2.761 0 5 2.239 5 5s-2.239 5-5 5z"></path>
<path   d="M52.45 46.3h-40.9c-5.276-0.023-9.544-4.302-9.55-9.579v-22.721c0.006-5.289 4.291-9.574 9.579-9.58h40.901c5.263 0.040 9.514 4.312 9.52 9.579v22.721c-0.006 5.278-4.274 9.557-9.548 9.58zM12 36.3h40v-21.93h-40v21.93z"></path>
</symbol>
<symbol id="cta-icon-youtube" viewBox="0 0 64 64">
<title>youtube</title>
<path   d="M44.36 64h-24.72c-10.901-0.017-19.736-8.841-19.77-19.737v-44.263h44.49c10.901 0.017 19.736 8.841 19.77 19.737v24.513c-0.028 10.903-8.865 19.733-19.768 19.75zM7.78 7.88v36.38c0.011 6.545 5.314 11.849 11.859 11.86h24.721c6.549-0.011 11.854-5.32 11.86-11.869v-24.511c-0.011-6.546-5.315-11.849-11.859-11.86z"></path>
<path fill="currentColor"  d="M48.79 34.86v11c0 0.015 0 0.032 0 0.049 0 0.675-0.163 1.312-0.451 1.874-0.293 0.574-0.692 1.079-1.173 1.491-0.501 0.422-1.078 0.761-1.707 0.993-0.67 0.254-1.399 0.393-2.161 0.393-0.010 0-0.020 0-0.030-0h-22.558c-0.006 0-0.012 0-0.019 0-0.755 0-1.477-0.139-2.143-0.394-0.631-0.228-1.212-0.568-1.717-0.993-0.48-0.413-0.882-0.917-1.178-1.485-0.291-0.566-0.453-1.203-0.453-1.878 0-0.017 0-0.035 0-0.052v-10.997c0.005-0.679 0.171-1.319 0.461-1.884 0.293-0.578 0.696-1.087 1.182-1.501 0.506-0.418 1.085-0.757 1.715-0.992 0.662-0.289 1.384-0.46 2.143-0.483l22.559-0c0.011-0 0.023-0 0.036-0 0.757 0 1.48 0.143 2.144 0.404 0.635 0.234 1.218 0.573 1.73 0.994 0.489 0.43 0.891 0.967 1.168 1.573 0.288 0.571 0.45 1.211 0.452 1.889zM22.23 47.12v-11.64h2.77v-1.76h-7.48v1.71h2.4v11.69zM23.35 20l-3.090-6.76h2.74l1.54 5.050 1.46-5h2.69l-2.87 6.71v7.87h-2.47zM30.62 37.14h-2.31v6.26c0 0.45 0 0.8 0 1s0 0.4-0.1 0.47c-0.087 0.287-0.311 0.508-0.594 0.589-0.326 0.121-0.576-0.048-0.746-0.538-0.015-0.074-0.024-0.158-0.024-0.245s0.009-0.171 0.025-0.253c-0.001-0.252-0.001-0.592-0.001-0.992v-6.26h-2.33l0.050 6.16c0 0.48 0 0.89 0 1.21-0.014 0.111-0.022 0.24-0.022 0.37s0.008 0.259 0.024 0.385c-0.002 0.255 0.058 0.545 0.098 0.855 0.039 0.316 0.22 0.582 0.476 0.737 0.262 0.16 0.573 0.253 0.907 0.253 0.013 0 0.027-0 0.040-0 0.033 0.001 0.075 0.002 0.116 0.002 0.336 0 0.66-0.052 0.964-0.148 0.359-0.114 0.69-0.28 0.989-0.491 0.248-0.17 0.462-0.393 0.623-0.653l0.005 1.221h1.91zM28.51 21.080c-0.001-0.052-0.002-0.114-0.002-0.176 0-0.75 0.092-1.479 0.265-2.176 0.148-0.502 0.505-0.966 0.977-1.262 0.449-0.297 0.989-0.47 1.569-0.47 0.056 0 0.113 0.002 0.168 0.005 0.024-0.001 0.062-0.002 0.1-0.002 0.525 0 1.025 0.111 1.476 0.311 0.399 0.179 0.741 0.482 0.971 0.861 0.199 0.297 0.353 0.63 0.45 0.986 0.102 0.484 0.157 1.013 0.157 1.555 0 0.056-0.001 0.111-0.002 0.167l0 2.622c0.003 0.087 0.004 0.189 0.004 0.292 0 0.628-0.056 1.243-0.163 1.841-0.060 0.418-0.233 0.847-0.487 1.217-0.239 0.356-0.579 0.642-0.979 0.814-0.419 0.195-0.893 0.306-1.393 0.306-0.022 0-0.043-0-0.065-0.001-0.015 0-0.037 0-0.059 0-0.516 0-1.010-0.092-1.467-0.26-0.372-0.106-0.699-0.368-0.897-0.713-0.23-0.33-0.405-0.708-0.509-1.114-0.103-0.563-0.159-1.184-0.159-1.817 0-0.094 0.001-0.187 0.004-0.281zM30.57 25.18c0 0.002 0 0.004 0 0.006 0 0.28 0.115 0.532 0.3 0.714 0.182 0.19 0.437 0.309 0.72 0.31 0.002 0 0.004 0 0.006 0 0.28 0 0.532-0.115 0.714-0.3 0.191-0.183 0.31-0.439 0.31-0.724 0-0.002 0-0.004 0-0.006v-5.46c0-0.011 0.001-0.023 0.001-0.036 0-0.285-0.119-0.542-0.31-0.724-0.181-0.194-0.436-0.317-0.72-0.32-0.282 0.007-0.533 0.128-0.71 0.319-0.198 0.184-0.321 0.445-0.321 0.734 0 0.009 0 0.019 0 0.028zM38.080 44.28v-5.15c0.006-0.061 0.009-0.131 0.009-0.203 0-0.814-0.432-1.527-1.079-1.922-0.232-0.132-0.497-0.206-0.78-0.206-0.014 0-0.028 0-0.042 0.001-0.732 0.060-1.39 0.345-1.913 0.784l0.005-3.864h-2.28v13.28h1.91l0.15-0.83c0.459 0.443 1.018 0.786 1.639 0.991 0.161 0.047 0.311 0.068 0.467 0.068 0.308 0 0.596-0.085 0.841-0.233 0.358-0.233 0.637-0.576 0.788-0.982 0.184-0.477 0.288-1.012 0.288-1.572 0-0.057-0.001-0.114-0.003-0.17zM35.3 38.1c0.004-0 0.009-0 0.014-0 0.264 0 0.507 0.090 0.699 0.242 0.177 0.116 0.297 0.312 0.308 0.537l0 5.831c-0.010 0.221-0.131 0.411-0.307 0.518-0.196 0.145-0.439 0.232-0.703 0.232-0.004 0-0.007 0-0.011-0s-0.006 0-0.010 0c-0.267 0-0.513-0.086-0.713-0.232-0.175-0.108-0.294-0.297-0.306-0.516l-0-5.842c0.011-0.226 0.13-0.422 0.307-0.538 0.194-0.145 0.435-0.232 0.696-0.232 0.009 0 0.018 0 0.028 0zM36.38 26.89c-0.057-0.119-0.099-0.257-0.119-0.402-0.021-0.169-0.049-0.312-0.086-0.451-0.004-0.079-0.010-0.197-0.010-0.317s0.005-0.238 0.016-0.355l-0.001-7.985h2.16v8c-0 0.005-0 0.010-0 0.016 0 0.202 0.084 0.384 0.22 0.514 0.148 0.143 0.349 0.231 0.57 0.231 0.011 0 0.021-0 0.031-0.001 0.001 0 0.003 0 0.005 0 0.229 0 0.437-0.087 0.594-0.231 0.152-0.127 0.249-0.317 0.249-0.529v-8h2v10.24h-2.59v-0.83c-0.199 0.295-0.424 0.551-0.676 0.776-0.252 0.16-0.554 0.254-0.877 0.254-0.002 0-0.005 0-0.007 0-0.030 0.002-0.066 0.003-0.102 0.003-0.332 0-0.642-0.094-0.905-0.257-0.2-0.18-0.366-0.407-0.478-0.663zM45.38 43.63h-1.74v1.13c0.001 0.011 0.001 0.024 0.001 0.037 0 0.24-0.113 0.455-0.289 0.592-0.181 0.139-0.409 0.222-0.656 0.222-0.013 0-0.025-0-0.038-0.001l-0.358 0c-0.010 0-0.022 0.001-0.033 0.001-0.238 0-0.457-0.083-0.628-0.222-0.159-0.144-0.259-0.353-0.259-0.585 0-0.015 0-0.030 0.001-0.045l-0-2.388h4v-1.37c0-0.52 0-1 0-1.5-0.002-0.398-0.046-0.784-0.127-1.157-0.051-0.411-0.28-0.797-0.61-1.061-0.341-0.272-0.749-0.468-1.195-0.559-0.281-0.067-0.583-0.103-0.893-0.103-0.196 0-0.389 0.015-0.577 0.043-0.452 0.058-0.876 0.229-1.238 0.483-0.441 0.289-0.788 0.71-0.985 1.207-0.199 0.59-0.311 1.25-0.311 1.936 0 0.085 0.002 0.17 0.005 0.254l-0 3.078c-0.013 0.111-0.020 0.24-0.020 0.37 0 0.948 0.391 1.806 1.020 2.419 0.533 0.471 1.231 0.763 1.997 0.781l0.204 0c0.83-0.055 1.564-0.429 2.088-0.998 0.424-0.437 0.684-1.031 0.684-1.686 0-0.034-0.001-0.067-0.002-0.101-0.004-0.275-0.022-0.545-0.053-0.812zM43.59 40.68h-2.21v-1.23c-0-0.006-0-0.014-0-0.022 0-0.259 0.116-0.491 0.299-0.647 0.188-0.169 0.436-0.271 0.708-0.271 0.008 0 0.016 0 0.024 0h0.099c0.009-0 0.019-0 0.030-0 0.276 0 0.531 0.094 0.733 0.252 0.187 0.153 0.308 0.388 0.308 0.65 0 0.010-0 0.020-0.001 0.029z"></path>
</symbol>
<symbol id="cta-icon-external-link" viewBox="0 0 64 64">
<title>external-link</title>
<path   d="M29.51 64h-17c0 0 0 0 0 0-6.906 0-12.504-5.595-12.51-12.499v-16.361c0.006-6.901 5.599-12.494 12.499-12.5h0.731v9h-0.73c-1.933 0-3.5 1.567-3.5 3.5v16.36c0 1.933 1.567 3.5 3.5 3.5h17c1.933 0 3.5-1.567 3.5-3.5v-0.64h9v0.64c-0.006 6.898-5.593 12.489-12.489 12.5z"></path>
<path fill="currentColor"  d="M50.4 41.81h-15.27c-7.509-0.006-13.594-6.091-13.6-13.599v-14.611c0.006-7.509 6.091-13.594 13.599-13.6h28.871v28.21c-0.006 7.509-6.091 13.594-13.599 13.6zM35.13 9c0 0 0 0 0 0-2.541 0-4.6 2.059-4.6 4.6v14.61c0 2.541 2.059 4.6 4.6 4.6 0 0 0 0 0 0h15.27c2.541 0 4.6-2.059 4.6-4.6 0 0 0 0 0 0v-19.21h-19.87z"></path>
</symbol>
<symbol id="cta-icon-twitter" viewBox="0 0 64 64">
<title>twitter</title>
<path   d="M44.36 64h-24.72c-10.901-0.017-19.736-8.841-19.77-19.737v-44.263h44.49c10.901 0.017 19.736 8.841 19.77 19.737v24.513c-0.028 10.903-8.865 19.733-19.768 19.75zM7.78 7.88v36.38c0.011 6.545 5.314 11.849 11.859 11.86h24.721c6.549-0.011 11.854-5.32 11.86-11.869v-24.511c-0.011-6.546-5.315-11.849-11.859-11.86h-36.581z"></path>
<path fill="currentColor"  d="M38.23 18.12h0.66l0.61 0.080c1.292 0.076 2.85 0.836 3.999 1.999 0.059 0.065 0.143 0.105 0.237 0.105 0.033 0 0.066-0.005 0.096-0.015 0.222 0.126 2.269-0.532 4.065-1.576l0.103-0.014c-0.202 1.17-1.35 2.78-2.922 3.783 0.776 0.030 2.441-0.355 3.957-1.016l-0.155 0.163c0.62-0.491-1.006 1.65-3.085 3.225-0.188 0.118-0.288 0.283-0.288 0.471 0 0.019 0.001 0.038 0.003 0.056 0.007 0.187 0.011 0.41 0.011 0.634 0 0.961-0.073 1.905-0.214 2.827 0.078 0.833-0.693 3.674-1.971 6.216 0.832-1.042-0.873 2.126-3.229 4.685 0.745-0.348-1.846 2.191-4.967 3.876-2.198 1.255-5.216 2.155-8.434 2.278-0.353 0.019-0.723 0.029-1.096 0.029-1.119 0-2.218-0.090-3.288-0.263-0.977 0.069-3.953-0.842-6.561-2.326l-0.762-0.528c0.412 0.037 0.892 0.058 1.376 0.058 0.799 0 1.584-0.058 2.351-0.169 0.209 0.082 1.926-0.332 3.492-1.025-0.572 0.433 1.401-0.505 3.033-1.843-1.435-0.002-2.875-0.525-4.041-1.396-0.764-0.37-1.91-1.742-2.457-3.388 0.361 0.027 0.793 0.070 1.235 0.070 0.652 0 1.282-0.095 1.878-0.271-1.279-0.117-2.913-1.076-4.036-2.465-0.976-1.194-1.561-2.718-1.561-4.379 0-0.030 0-0.060 0.001-0.089 0.84 0.49 1.935 0.811 3.103 0.834-1.166-0.652-2.401-2.271-2.854-4.192-0.129-0.529-0.197-1.080-0.197-1.648 0-1.274 0.344-2.468 0.945-3.493l0.032 0.033 0.1 0.11c3.087 3.899 8.221 6.758 14.031 7.137 0.289 0.003 0.299 0.003 0.259-0.227-0.088-0.416-0.138-0.894-0.138-1.383 0-3.562 2.661-6.503 6.103-6.943z"></path>
</symbol>
<symbol id="cta-icon-submit" viewBox="0 0 64 64">
<title>submit</title>
<path fill="currentColor"  d="M56.6 35.5c-1.7 12.1-12.1 21.4-24.6 21.4-13.7 0-24.9-11.2-24.9-24.9s11.2-24.9 24.9-24.9c4.1 0 8 1 11.5 2.8l5.2-5.2c-4.9-3-10.6-4.7-16.7-4.7-17.7 0-32 14.3-32 32s14.3 32 32 32 32-14.3 32-32c0-1.2-0.1-2.5-0.2-3.7l-7.2 7.2z"></path>
<path   d="M35.3 44.7l-15.5-15.5c-1.7-1.7-1.7-4.5 0-6.3 1.7-1.7 4.5-1.7 6.3 0l9.2 9.2 19.8-19.8c1.7-1.7 4.5-1.7 6.3 0 1.7 1.7 1.7 4.5 0 6.3l-26.1 26.1z"></path>
</symbol>
<symbol id="cta-icon-phone" viewBox="0 0 64 64">
<title>phone</title>
<path fill="currentColor"  d="M15.1 45.6c-17.9-21.4-12.5-33.1-10.3-35.5l13 15c-2.2 1.8-0.4 4.8 1.5 7.7 0 0.1 9 10.5 9.1 10.6 4.4 4.2 6.8 6.1 8.8 4.3l12.6 14.7c-2.3 2.2-15.9 5.7-34.7-16.8v0z"></path>
<path   d="M61 54.4v0c0 0-4.2 3.6-4.2 3.6l-12.7-14.7 4.2-3.6c0.9-0.8 2.3-0.7 3 0.2 0 0 9.9 11.4 9.9 11.4v0c0.7 0.9 0.7 2.3-0.2 3.1v0z"></path>
<path   d="M26.7 15.6v0c0 0-4.2 3.6-4.2 3.6l-13-15.1 4.2-3.6c0.9-0.8 2.3-0.7 3 0.2 0 0 10.2 11.8 10.2 11.8v0c0.7 0.9 0.7 2.3-0.2 3.1v0z"></path>
</symbol>
<symbol id="cta-icon-chat" viewBox="0 0 64 64">
<title>chat</title>
<path   d="M2.3 63.8v-63.6h43.4c8 0.2 16 5.6 16 17.3v28.2h-33.8l-25.6 18.1zM14.9 12.8v26.7l9-6.4h25.3v-15.6c0-3.4-1-4.6-3.6-4.7h-30.7z"></path>
<path fill="currentColor"  d="M61.7 45.7h-12.6v-28.2c0-3.4-1-4.6-3.6-4.7h-30.6v0.4h-12.6v-13h43.4c8 0.2 16 5.6 16 17.3v28.2z"></path>
</symbol>
<symbol id="cta-icon-close-circle" viewBox="0 0 64 64">
<title>close-circle</title>
<path fill="currentColor"  d="M41.6 45c-0.9 0-1.8-0.3-2.5-1l-18.8-18.7c-1.4-1.4-1.4-3.6 0-5s3.6-1.4 5 0l18.7 18.7c1.4 1.4 1.4 3.6 0 5-0.6 0.7-1.5 1-2.4 1z"></path>
<path   d="M40.702 18.212l5.020 5.021-22.489 22.483-5.020-5.021 22.489-22.483z"></path>
<path fill="currentColor"  d="M32 8.9c12.7 0 23.1 10.4 23.1 23.1s-10.4 23.1-23.1 23.1-23.1-10.4-23.1-23.1 10.4-23.1 23.1-23.1zM32 0c-17.7 0-32 14.3-32 32s14.3 32 32 32 32-14.3 32-32-14.3-32-32-32v0z"></path>
</symbol>
<symbol id="cta-icon-email" viewBox="0 0 64 64">
<title>email</title>
<path   d="M64 56.6h-54.7c-4.5-0.2-9.3-3-9.3-10.4v-36h54.7c4.5 0.2 9.3 3.1 9.3 10.5v35.9zM11.6 45h40.7v-23.2h-40.7v23.2z"></path>
<path fill="currentColor"  d="M0.2 20.6h63.6l-32.2 12.1z"></path>
<path fill="currentColor"  d="M0 20.7v-10.7h54.7c0 0 9.4 0 9.4 10.7z"></path>
</symbol>
<symbol id="cta-icon-directory" viewBox="0 0 64 64">
<title>directory</title>
<path fill="currentColor"  d="M14 24.8c0.3 0 0.6 0 0.8 0-0.1-0.8-0.2-1.6-0.2-2.4 0-4.9 2-9.4 5.2-12.6-1.5-1.4-3.6-2.3-5.9-2.3-4.8 0-8.7 3.9-8.7 8.7s4 8.6 8.8 8.6z"></path>
<path fill="currentColor"  d="M50.3 22.4c0 0.8-0.1 1.6-0.2 2.4 4.7-0.1 8.5-3.9 8.5-8.7s-3.9-8.7-8.7-8.7c-2 0-3.9 0.7-5.4 1.9 3.6 3.3 5.8 7.9 5.8 13.1z"></path>
<path fill="currentColor"  d="M16.6 30.5c-0.1-0.2-0.2-0.4-0.3-0.6-0.8 0.1-1.6 0.2-2.4 0.2-4.1 0-7.8-1.8-10.4-4.7-2.4 1-3.6 3.2-3.6 5.6v4.2c0 4.1 3.3 4.5 7.6 4.5 1.2-4 4.2-7.6 9.1-9.2z"></path>
<path fill="currentColor"  d="M60.4 25.5c-2.6 2.9-6.3 4.7-10.4 4.7-0.5 0-1 0-1.4-0.1-0.1 0.1-0.1 0.3-0.2 0.4 2.5 0.8 4.3 2.1 5.4 3.2 1.7 1.7 2.9 3.8 3.6 6.2 3.8-0.1 6.6-0.7 6.6-4.5v-4.2c0-2.6-1.2-4.7-3.6-5.7z"></path>
<path   d="M45 35.1c-3.2 3.2-7.6 5.1-12.5 5.1-4.8 0-9.2-2-12.5-5.1-5.3 0.9-7.7 4.6-7.7 8.9v6c0 6.5 5.8 6.5 13 6.5h14.3c7.1 0 13 0 13-6.5v-6c0-4.4-2.4-8-7.6-8.9z"></path>
<path   d="M45 22.4c0 6.904-5.596 12.5-12.5 12.5s-12.5-5.596-12.5-12.5c0-6.904 5.596-12.5 12.5-12.5s12.5 5.596 12.5 12.5z"></path>
</symbol>
<symbol id="cta-icon-give" viewBox="0 0 64 64">
<title>give</title>
<path fill="currentColor"  d="M63.8 15.9h-63.6v12.9h6v25c0 5.6 4.6 10.2 10.2 10.2h41.2v-35.2h6v-12.9z"></path>
<path   d="M24 15.9h16v48.1h-16v-48.1z"></path>
<path   d="M31.8 15l-15.8-15h15.8z"></path>
<path   d="M31.9 15.1l26.3-8.2-15.9-6.9z"></path>
</symbol>
<symbol id="cta-icon-download" viewBox="0 0 64 64">
<title>download</title>
<path fill="currentColor"  d="M46.6 8.2c-1.8 0-3.6 0.3-5.3 0.8-3-3.8-7.8-6.1-12.9-6.1-7.6 0-14 5.1-15.7 11.8-7.1 0.6-12.8 6.3-12.8 13.3 0 7.4 6.3 13.3 14 13.3h4.8v-7h-4.8c-3.8 0-7-2.8-7-6.3s3.1-6.3 7-6.3c0.4 0 0.9 0 1.3 0.1l4.2 0.7-0.1-4.3c0-0.1 0-0.1 0-0.2 0.1-4.5 4.1-8.2 9-8.2 3.6 0 6.8 1.9 8.3 5l1.6 3.3 3.2-1.7c1.6-0.8 3.3-1.2 5.1-1.2 5.7 0 10.4 4.3 10.4 9.5 0 5.1-4.6 9.4-10.1 9.5h-1.7v7h1.8c9.4-0.2 17-7.6 17-16.5 0.2-9-7.7-16.5-17.3-16.5z"></path>
<path   d="M36.6 47.8v-13.8h-9.2v13.8h-7.3l11.9 14.3 11.9-14.3z"></path>
</symbol>
<symbol id="cta-icon-edit" viewBox="0 0 64 64">
<title>edit</title>
<path   d="M5.1 34.7l13.1 16.8-18.2 0.5z"></path>
<path fill="currentColor"  d="M5.1 34.7l43.7-33.5c2.5-1.9 6.1-1.5 8 1l5.9 7.5c2.1 2.6 1.6 6.4-1.1 8.5l-43.4 33.3-13.1-16.8z"></path>
<path   d="M48.2 64h-45c-1.8 0-3.2-1.4-3.2-3.2s1.4-3.2 3.2-3.2h45c1.8 0 3.2 1.4 3.2 3.2s-1.4 3.2-3.2 3.2z"></path>
</symbol>
<symbol id="cta-icon-enter" viewBox="0 0 64 64">
<title>enter</title>
<path fill="currentColor"  d="M50.5 8h-37.1c-3.6 0-6.4 2.9-6.4 6.4v2l8.9 6.1v-5.6h32.1v32.1h-32.1v-5.6l-8.9 6.1v2c0 3.5 2.9 6.4 6.4 6.4h37.1c3.5 0 6.4-2.9 6.4-6.4v-37.1c0-3.5-2.9-6.4-6.4-6.4z"></path>
<path fill="currentColor"  d="M57.9 57.9l-31.4 6.1v-64l31.4 8z"></path>
<path   d="M7.3 42v-18.1l13.2 9.1z"></path>
</symbol>
<symbol id="cta-icon-calendar" viewBox="0 0 64 64">
<title>calendar</title>
<path   d="M15.6 28.9h8.6v8.6h-8.6v-8.6z"></path>
<path   d="M15.6 40.8h8.6v8.6h-8.6v-8.6z"></path>
<path   d="M39.8 28.9h8.6v8.6h-8.6v-8.6z"></path>
<path fill="currentColor"  d="M44.6 49.4h-1.1c-2.1 0-3.7-1.7-3.7-3.7v-1.1c0-2.1 1.7-3.7 3.7-3.7h1.1c2.1 0 3.7 1.7 3.7 3.7v1.1c0.1 2-1.6 3.7-3.7 3.7z"></path>
<path   d="M27.7 28.9h8.6v8.6h-8.6v-8.6z"></path>
<path   d="M27.7 40.8h8.6v8.6h-8.6v-8.6z"></path>
<path fill="currentColor"  d="M59.5 22.6h-54.9v-3.5c0-3.7 3-6.7 6.7-6.7h41.5c3.7 0 6.7 3 6.7 6.7v3.5z"></path>
<path fill="currentColor"  d="M52.5 64h-41c-6.3 0-11.5-5.2-11.5-11.6v-32.6c0-6.4 5.2-11.6 11.5-11.6h40.9c6.4 0 11.6 5.2 11.6 11.6v32.6c0 6.4-5.2 11.6-11.5 11.6zM11.5 15.5c-2.4 0-4.3 1.9-4.3 4.3v32.6c0 2.4 1.9 4.3 4.3 4.3h40.9c2.4 0 4.3-1.9 4.3-4.3v-32.6c0-2.4-1.9-4.3-4.3-4.3h-40.9z"></path>
<path fill="currentColor"  d="M18.7 17.1c-3.1 0-5.5-2.5-5.5-5.5v-6c0-3.1 2.5-5.5 5.5-5.5s5.5 2.5 5.5 5.5v6c0 3-2.5 5.5-5.5 5.5z"></path>
<path fill="currentColor"  d="M45.5 17.1c-3.1 0-5.5-2.5-5.5-5.5v-6c0-3.1 2.4-5.6 5.5-5.6s5.5 2.5 5.5 5.5v6c0 3.1-2.5 5.6-5.5 5.6z"></path>
</symbol>
<symbol id="cta-icon-exit" viewBox="0 0 64 64">
<title>exit</title>
<path fill="currentColor"  d="M48.6 48.2v-0.1h-32.2v-32.2h32.1v0.1l8.9 5.5v-8.1c0-3.5-2.9-6.4-6.4-6.4h-37c-3.5 0-6.4 2.9-6.4 6.4v37.1c0 3.5 2.9 6.4 6.4 6.4h37.1c3.5 0 6.4-2.9 6.4-6.4v-7.9l-8.9 5.6z"></path>
<path   d="M44.3 41v-18l13.2 9z"></path>
<path fill="currentColor"  d="M6.5 6.1l31.4-6.1v64l-31.4-8z"></path>
</symbol>
<symbol id="cta-icon-add" viewBox="0 0 64 64">
<title>add</title>
<path fill="currentColor"  d="M32.1 63.9c-3.9 0-7-3.1-7-7v-49.8c0-3.9 3.1-7 7-7s7 3.1 7 7v49.8c0.1 3.9-3.1 7-7 7z"></path>
<path   d="M3 24.6h58.1v14h-58.1v-14z"></path>
</symbol>
<symbol id="cta-icon-help" viewBox="0 0 64 64">
<title>help</title>
<path fill="currentColor"  d="M32 0c-17.7 0-32 14.3-32 32 0 13.6 8.4 25.1 20.4 29.8-0.3-1.1-0.5-2.2-0.5-3.4 0-1.5 0.3-3 0.8-4.3-8.1-4.1-13.6-12.5-13.6-22.1 0-13.7 11.2-24.9 24.9-24.9s24.9 11.2 24.9 24.9c0 9.6-5.5 18-13.6 22.2 0.5 1.3 0.8 2.8 0.8 4.3 0 1.2-0.2 2.3-0.5 3.4 12-4.8 20.4-16.3 20.4-29.9 0-17.7-14.3-32-32-32z"></path>
<path   d="M37 58.9c0 2.761-2.239 5-5 5s-5-2.239-5-5c0-2.761 2.239-5 5-5s5 2.239 5 5z"></path>
<path   d="M32.5 43.9c-1.3 0-2.6-0.2-3.9-0.6l2-6.5c1.6 0.5 3.3 0.3 4.8-0.4 1.5-0.8 2.6-2.1 3-3.7 0.5-1.6 0.3-3.3-0.4-4.8-0.8-1.5-2.1-2.6-3.7-3.1-3.3-1-6.8 0.8-7.8 4.1l-6.5-2c2.1-6.9 9.4-10.7 16.3-8.6 3.3 1 6 3.3 7.7 6.4 1.6 3.1 1.9 6.6 0.9 9.9s-3.3 6-6.4 7.7c-1.8 1.1-3.9 1.6-6 1.6z"></path>
<path   d="M31.6 49.6c-1.9 0-3.4-1.5-3.4-3.4v-6c0-1.9 1.5-3.4 3.4-3.4s3.4 1.5 3.4 3.4v6c0 1.9-1.6 3.4-3.4 3.4z"></path>
</symbol>
<symbol id="cta-icon-physician" viewBox="0 0 64 64">
<title>physician</title>
<path fill="currentColor"  d="M41.7 63.2c-11 0-20-9-20-20h8.8c0 6.2 5 11.2 11.2 11.2s11.2-5 11.2-11.2h8.8c-0.1 11-9 20-20 20z"></path>
<path   d="M63.7 43.2c0 4.915-3.985 8.9-8.9 8.9s-8.9-3.985-8.9-8.9c0-4.915 3.985-8.9 8.9-8.9s8.9 3.985 8.9 8.9z"></path>
<path fill="currentColor"  d="M25.7 44.7c-6.2 0-12.4-2.3-17.3-6.8-5-4.6-7.8-10.9-8.1-17.7s2.3-13.2 6.9-18.1l6.4 6c-3 3.2-4.6 7.5-4.4 11.9s2 8.5 5.3 11.5c6.7 6.2 17.2 5.9 23.4-0.8 3-3.2 4.6-7.5 4.4-11.9s-2-8.5-5.3-11.5l6-6.4c10.2 9.5 10.8 25.6 1.2 35.9-4.9 5.2-11.7 7.9-18.5 7.9z"></path>
</symbol>
<symbol id="cta-icon-home" viewBox="0 0 64 64">
<title>home</title>
<path   d="M54.6 18.9h-10.3l-12.6-14.8-31.6 19.1v27.3c0 9.3 9.3 9.3 9.3 9.3h16.4v-21.2h12.4v21.4h25.7v-31.8c0-9.3-9.3-9.3-9.3-9.3z"></path>
<path fill="currentColor"  d="M0.1 28.4v-5.2l31.6-19.1 12.6 14.8h10.3c0 0 9.3 0 9.3 9.3z"></path>
</symbol>
<symbol id="cta-icon-labs" viewBox="0 0 64 64">
<title>labs</title>
<path   d="M55.2 5.9l-5.7-5.7-8.5 8.4c-2.7-0.7-5.7-0.1-7.8 2l-15.8 15.7c-0.4 0.4-0.7 0.8-1 1.2l-2.9-2.8-5.7 5.7 17 16.8 5.7-5.7-2.8-2.8c0.4-0.3 0.7-0.5 1.1-0.9l15.8-15.6c2.1-2.1 2.8-5.1 2.1-7.8l8.5-8.5z"></path>
<path fill="currentColor"  d="M50 56.8h-3.6c9.8-6.5 14.6-18.6 11.6-30 0 0 0 0 0-0.1 0-6.8-5.5-12.2-12.3-12.2s-12.3 5.5-12.3 12.2c0 6.8 5.5 12.2 12.3 12.2 1.3 0 2.6-0.2 3.7-0.6-1.4 5.4-5.1 10.1-10.5 12.5-9.7 4.5-21.2 0.3-25.7-9.2l-8 3.8c2.3 4.8 5.7 8.6 9.9 11.4h-3c-2 0-3.5 1.6-3.5 3.5s1.6 3.5 3.5 3.5h37.9c2 0 3.5-1.6 3.5-3.5s-1.6-3.5-3.5-3.5zM49.1 27c-0.2 1.7-1.7 3-3.5 3-1.9 0-3.5-1.5-3.5-3.4s1.6-3.4 3.5-3.4c1.9 0 3.5 1.5 3.5 3.4 0 0.2 0 0.3 0 0.4z"></path>
</symbol>
<symbol id="cta-icon-location" viewBox="0 0 64 64">
<title>location</title>
<path   d="M32 0c-11 0-20 9-20 20 0 19.1 20 44 20 44s20-24.9 20-44c0-11-9-20-20-20zM32 33.4c-7.3 0-13.1-5.9-13.1-13.1 0-7.3 5.8-13.2 13.1-13.2s13.1 5.9 13.1 13.1c0 7.3-5.8 13.2-13.1 13.2z"></path>
<path fill="currentColor"  d="M32 14.2c3.3 0 6 2.7 6 6s-2.7 6-6 6-6-2.7-6-6 2.7-6 6-6zM32 7.1c-7.3 0-13.1 5.9-13.1 13.1s5.8 13.2 13.1 13.2 13.1-5.9 13.1-13.1-5.8-13.2-13.1-13.2v0z"></path>
</symbol>
<symbol id="cta-icon-appointment" viewBox="0 0 64 64">
<title>appointment</title>
<path   d="M32 10.7c11.7 0 21.3 9.5 21.3 21.3 0 11.7-9.5 21.3-21.3 21.3s-21.3-9.6-21.3-21.3c0-11.7 9.6-21.3 21.3-21.3zM32 0c-17.7 0-32 14.3-32 32s14.3 32 32 32 32-14.3 32-32c0-17.7-14.3-32-32-32v0z"></path>
<path   d="M26 42.2c-1.3 0-2.6-0.6-3.4-1.8-1.3-1.9-0.9-4.4 1-5.7l5.5-3.9v-10.2c0-2.3 1.8-4.1 4.1-4.1s4.1 1.8 4.1 4.1v14.5l-9 6.3c-0.7 0.5-1.5 0.8-2.3 0.8z"></path>
<path fill="currentColor"  d="M29.1 30.9l-9.7 6.8 5 6.5 12.9-9z"></path>
</symbol>
<symbol id="cta-icon-metrics" viewBox="0 0 64 64">
<title>metrics</title>
<path fill="currentColor"  d="M35.6 64h-3.6c-17.7 0-32.1-14.4-32.1-32s14.4-32 32.1-32 32.1 14.4 32.1 32v3.6h-28.5v28.4zM32 7.2c-13.7 0-24.8 11.1-24.8 24.8 0 12.4 9.2 22.8 21.2 24.5v-28.2h28.2c-1.8-11.9-12.1-21.1-24.6-21.1z"></path>
<path   d="M43.2 62.8c10.9 0 19.8-8.9 19.8-19.8h-19.8v19.8z"></path>
</symbol>
<symbol id="cta-icon-news" viewBox="0 0 64 64">
<title>news</title>
<path fill="currentColor"  d="M54 63.9h-45.7c-2.8 0-6.9-2.4-6.9-8.9v-54.9h47.8v23.4h13.4v31.4c0 5.9-5.1 8.6-8.5 8.9l-0.1 0.1zM8.9 56.7h44.7c0.7-0.1 1.9-0.5 1.9-1.7v-24.3h-6.1v19.3h-7.2l-0.2-3.6v-39.1h-33.4v47.6c0 1 0.2 1.5 0.3 1.8z"></path>
<path   d="M14.4 14.7h22.1v11.8h-22.1v-11.8z"></path>
<path   d="M33.8 38.2h-16.7c-1.5 0-2.7-1.2-2.7-2.7s1.2-2.7 2.7-2.7h16.7c1.5 0 2.7 1.2 2.7 2.7s-1.2 2.7-2.7 2.7z"></path>
<path   d="M33.8 48.6h-16.7c-1.5 0-2.7-1.2-2.7-2.7s1.2-2.7 2.7-2.7h16.7c1.5 0 2.7 1.2 2.7 2.7s-1.2 2.7-2.7 2.7z"></path>
</symbol>
<symbol id="cta-icon-protected" viewBox="0 0 64 64">
<title>protected</title>
<path fill="currentColor"  d="M51.7 37h-11.2c0 0 0-11.3 0-18.5 0-4.1-3.6-7.4-7.9-7.4s-7.9 3.3-7.9 7.4c0 4.8 0.1 17.6 0.1 17.7l-11.2 0.1c0-0.5-0.1-13-0.1-17.9 0-10.2 8.6-18.6 19.1-18.6s19.1 8.3 19.1 18.6c0.1 7.3 0 18.6 0 18.6z"></path>
<path   d="M48.7 25.4h9.7v9.3h-9.7v-9.3z"></path>
<path   d="M53.1 34.8v23.8h-37.6c-2.8-0.1-4.2-1.4-4.2-4.1v-23.8h37.6c2.8 0.1 4.2 1.5 4.2 4.1z"></path>
<path   d="M58.5 63.9h-43.1c-5.7-0.2-9.4-3.8-9.4-9.4v-29.1h43.1c5.7 0.2 9.4 3.8 9.4 9.4v29.1zM16.6 53.3h31.2v-17.2h-31.2v17.2z"></path>
</symbol>
<symbol id="cta-icon-portal" viewBox="0 0 64 64">
<title>portal</title>
<path   d="M9.1 29l-2.9-14.9 5.6-1c0.6-0.2 1.2-0.4 1.8-0.4h0.2l33.5-6.3 1.2 6.3h6.2l-1.7-9c-0.4-2.2-2.3-3.7-4.4-3.7-0.3 0-0.6 0-0.8 0.1l-44.3 8.3c-2.5 0.5-4.1 2.8-3.6 5.3l4.7 25.2c0.4 2.2 2.3 3.7 4.4 3.7v-13.6z"></path>
<path   d="M58.6 12.7h-45c-2.5 0-4.5 2-4.5 4.5v25.7c0 2.5 2 4.5 4.5 4.5h10.6c0.7-1.1 1.9-1.9 3.8-2.1 1.5 1.3 3.4 2.1 5.5 2.1v0c2.1 0 4-0.8 5.5-2.1 1.9 0.2 3.2 1 3.8 2.1h15.7c2.5 0 4.5-2 4.5-4.5v-25.6c0.1-2.5-1.9-4.6-4.4-4.6zM57 41.3h-17.7c-0.9 2.3-3.1 4-5.8 4-2.6 0-4.9-1.7-5.8-4h-12.5v-22.4h41.8v22.4z"></path>
<path fill="currentColor"  d="M54.9 26.6v-3c0-1.4-1.1-2.6-2.6-2.6h-13c-1.4 0-2.6 1.1-2.6 2.6v3h-36v37.4h56c4.1 0 7.4-3.3 7.4-7.4v-30h-9.2zM33.6 33c3.4 0 6.2 2.8 6.2 6.2s-2.8 6.2-6.2 6.2c-3.4 0-6.2-2.8-6.2-6.2s2.8-6.2 6.2-6.2zM43.5 52.8c0 3.2-2.9 3.2-6.4 3.2h-7c-3.5 0-6.4 0-6.4-3.2v-3c0-2.3 1.4-4.2 4.4-4.4 1.5 1.3 3.4 2.1 5.5 2.1s4-0.8 5.5-2.1c3 0.3 4.4 2.1 4.4 4.4v3z"></path>
</symbol>
<symbol id="cta-icon-chart" viewBox="0 0 64 64">
<title>chart</title>
<path fill="currentColor"  d="M15.1 53.6v-46.7l28.4 5.6 5.6 17v-21.5l-40.4-8v64l40.4-6.1v-8.6z"></path>
<path   d="M55.3 48.6l-36.9 10-0.2-5.4z"></path>
<path   d="M38.1 14.4l-13.8-1.5v-6.7l13.8 2.6z"></path>
<path   d="M40.4 25.3l-16.7-1.1c-1.2-0.1-2.2-1.1-2.3-2.3s0.8-2.1 2-2l15.9 1.7c1.2 0.1 2.4 1 2.7 2.1 0.4 1-0.3 1.7-1.6 1.6z"></path>
<path   d="M43 33.8l-18.6 0.1c-1.4 0-2.5-1-2.5-2.2s1-2.2 2.3-2.1l17.6 0.4c1.3 0 2.6 0.9 3 1.9s-0.5 1.9-1.8 1.9z"></path>
<path   d="M45.5 42.2l-20.5 1.2c-1.5 0.1-2.7-0.8-2.8-2 0-1.2 1.1-2.2 2.5-2.3l19.7-0.7c1.4-0.1 2.9 0.7 3.2 1.8 0.4 1-0.6 1.9-2.1 2z"></path>
</symbol>
<symbol id="cta-icon-prescriptions" viewBox="0 0 64 64">
<title>prescriptions</title>
<path   d="M49.6 50.1h-16.8v-9.7h16.8c2.5 0 4.7-2.8 4.7-6.1v-4.7c0-3.3-2.1-6.1-4.7-6.1h-16.8v-9.7h16.8c7.9 0 14.3 7.1 14.3 15.8v4.7c0.1 8.8-6.4 15.8-14.3 15.8z"></path>
<path fill="currentColor"  d="M32.9 45.3h-18.5c-5.2 0-9.5-4.9-9.5-10.9v-4.7c0-6 4.3-10.9 9.5-10.9h18.5z"></path>
<path   d="M32.9 50.1h-18.5c-7.9 0-14.4-7-14.4-15.7v-4.7c0-8.7 6.4-15.8 14.3-15.8h18.5v9.7h-18.4c-2.5 0-4.7 2.8-4.7 6.1v4.7c0 3.3 2.1 6.1 4.7 6.1h18.5v9.6z"></path>
</symbol>
<symbol id="cta-icon-publications" viewBox="0 0 64 64">
<title>publications</title>
<path fill="currentColor"  d="M58.3 12.9h-18.5v49.3h18.8c3 0 5.5-2.4 5.5-5.5v-38.1c-0.1-3.2-2.6-5.7-5.8-5.7z"></path>
<path fill="currentColor"  d="M10.4 56.1l-3-1.6v-41.5h-1.7c-3.2 0-5.7 2.5-5.7 5.6v38c0 3.1 2.5 5.7 5.7 5.7h16.5l-11.8-6.2z"></path>
<path   d="M13.1 51l21 11.2v-49.3l-21-11.2z"></path>
</symbol>
<symbol id="cta-icon-research" viewBox="0 0 64 64">
<title>research</title>
<path fill="currentColor"  d="M36.8 0h-9.6c-11.2 0-20.3 9.1-20.3 20.3v0.1c0 11.2 9.1 20.3 20.3 20.3h0.8v-7.4h-0.8c-7.1 0-12.9-5.8-12.9-12.9v-0.1c0-7.1 5.8-12.9 12.9-12.9h9.6c7.1 0 12.9 5.8 12.9 12.9v0.1c0 7.1-5.8 12.9-12.9 12.9h-0.8v7.4h0.8c11.2 0 20.3-9.1 20.3-20.3v-0.1c0-11.2-9.1-20.3-20.3-20.3z"></path>
<path fill="currentColor"  d="M41.4 45.4h-18.8c-2 0-3.7-1.7-3.7-3.7s1.7-3.7 3.7-3.7h18.8c2 0 3.7 1.7 3.7 3.7s-1.7 3.7-3.7 3.7z"></path>
<path   d="M38.5 55h-13c-1.5 0-2.8-1.2-2.8-2.8s1.2-2.8 2.8-2.8h12.9c1.5 0 2.8 1.2 2.8 2.8s-1.2 2.8-2.7 2.8z"></path>
<path   d="M35.6 64h-7.2c-1.5 0-2.8-1.2-2.8-2.8s1.2-2.8 2.8-2.8h7.2c1.5 0 2.8 1.2 2.8 2.8s-1.3 2.8-2.8 2.8z"></path>
</symbol>
<symbol id="cta-icon-search" viewBox="0 0 64 64">
<title>search</title>
<path fill="currentColor"  d="M48.592 38.728l14.319 15.088-10.446 9.913-14.319-15.088 10.446-9.913z"></path>
<path   d="M28.3 56.4c-15.6 0-28.3-12.6-28.3-28.2s12.7-28.2 28.3-28.2 28.2 12.6 28.2 28.2-12.7 28.2-28.2 28.2zM28.3 14.5c-7.6 0-13.8 6.2-13.8 13.8s6.2 13.8 13.8 13.8c7.6-0.1 13.7-6.3 13.7-13.9s-6.1-13.7-13.7-13.7z"></path>
</symbol>
<symbol id="cta-icon-settings" viewBox="0 0 64 64">
<title>settings</title>
<path fill="currentColor"  d="M32 42.2c-5.6 0-10.2-4.6-10.2-10.2s4.6-10.2 10.2-10.2c5.6 0 10.2 4.6 10.2 10.2s-4.6 10.2-10.2 10.2zM64 35.5v-7.3l-8.8-2.9-2.1-5 4-8.5-5.2-5.2-8.3 4.2-5-2.1-3.1-8.7h-7.3l-2.9 8.8-5 2.1-8.5-4-5.1 5.1 4.2 8.3-2.1 5-8.8 3.2v7.3l8.8 2.9 2.1 5-4 8.5 5.1 5.2 8.3-4.2 5 2.1 3.2 8.8h7.3l2.9-8.8 5-2.1 8.5 4 5.2-5.2-4.2-8.3 2.1-5 8.7-3.2z"></path>
<path   d="M31.8 49.9c-10 0-18.1-8.1-18.1-17.9s8.1-17.9 18.1-17.9 18.1 8 18.1 17.9-8.2 17.9-18.1 17.9zM31.8 22.9c-5.1 0-9.2 4.1-9.2 9.1s4.1 9.1 9.2 9.1 9.2-4.1 9.2-9.1-4.2-9.1-9.2-9.1z"></path>
</symbol>
<symbol id="cta-icon-testimonials" viewBox="0 0 64 64">
<title>testimonials</title>
<path   d="M63.9 25l0.1-0.1h-0.1c0 0 0-0.1 0-0.1 0.6-8.4-5.8-15.7-14.2-16.2-8.4-0.6-15.7 5.7-16.2 14.2 0 0.7 0 1.4 0 2.1h-0.1v30.6l16.6-16.6c7.3-0.6 13.3-6.4 13.9-13.9z"></path>
<path fill="currentColor"  d="M30.5 25l0.1-0.1h-0.1c0 0 0-0.1 0-0.1 0.6-8.4-5.8-15.7-14.2-16.2-8.4-0.6-15.7 5.7-16.2 14.2 0 0.7 0 1.4 0 2.1h-0.1v30.6l16.6-16.6c7.3-0.6 13.3-6.4 13.9-13.9z"></path>
</symbol>
<symbol id="cta-icon-profile" viewBox="0 0 64 64">
<title>profile</title>
<path fill="currentColor"  d="M55.1 13.7c1 0 1.8 0.8 1.8 1.8v33c0 1-0.8 1.8-1.8 1.8h-46.2c-1 0-1.8-0.8-1.8-1.8v-33c0-1 0.8-1.8 1.8-1.8h46.2zM55.1 6.6h-46.2c-4.9 0-8.9 4-8.9 8.9v33c0 4.9 4 8.9 8.9 8.9h46.2c4.9 0 8.9-4 8.9-8.9v-33c0-4.9-4-8.9-8.9-8.9v0z"></path>
<path   d="M28.7 32.9c-1.5 1.3-3.4 2.1-5.5 2.1s-4-0.8-5.5-2.1c-3 0.3-4.4 2.1-4.4 4.4v3c0 3.2 2.9 3.2 6.3 3.2h7c3.5 0 6.3 0 6.3-3.2v-3c0.1-2.3-1.2-4.2-4.2-4.4z"></path>
<path   d="M29.3 26.7c0 3.369-2.731 6.1-6.1 6.1s-6.1-2.731-6.1-6.1c0-3.369 2.731-6.1 6.1-6.1s6.1 2.731 6.1 6.1z"></path>
<path fill="currentColor"  d="M48 34.7h-8.7c-1.5 0-2.7-1.2-2.7-2.7s1.2-2.7 2.7-2.7h8.7c1.5 0 2.7 1.2 2.7 2.7s-1.2 2.7-2.7 2.7z"></path>
<path fill="currentColor"  d="M48 25.8h-8.7c-1.5 0-2.7-1.2-2.7-2.7s1.2-2.7 2.7-2.7h8.7c1.5 0 2.7 1.2 2.7 2.7s-1.2 2.7-2.7 2.7z"></path>
<path fill="currentColor"  d="M48 43.5h-8.7c-1.5 0-2.7-1.2-2.7-2.7s1.2-2.7 2.7-2.7h8.7c1.5 0 2.7 1.2 2.7 2.7s-1.2 2.7-2.7 2.7z"></path>
</symbol>
<symbol id="cta-icon-close" viewBox="0 0 50 64">
<title>close</title>
<path d="M46.357 47.214q0 1.429-1 2.429l-4.857 4.857q-1 1-2.429 1t-2.429-1l-10.5-10.5-10.5 10.5q-1 1-2.429 1t-2.429-1l-4.857-4.857q-1-1-1-2.429t1-2.429l10.5-10.5-10.5-10.5q-1-1-1-2.429t1-2.429l4.857-4.857q1-1 2.429-1t2.429 1l10.5 10.5 10.5-10.5q1-1 2.429-1t2.429 1l4.857 4.857q1 1 1 2.429t-1 2.429l-10.5 10.5 10.5 10.5q1 1 1 2.429z"></path>
</symbol>
<symbol id="cta-icon-vimeo" viewBox="0 0 64 64">
<title>vimeo</title>
<path   d="M44.4 64h-24.8c-10.9 0-19.7-8.8-19.7-19.7v-44.3h44.5c10.9 0 19.8 8.9 19.8 19.8v24.5c-0.1 10.9-8.9 19.7-19.8 19.7zM7.8 7.9v36.4c0 6.5 5.3 11.9 11.9 11.9h24.7c6.5 0 11.9-5.3 11.9-11.9v-24.6c0-6.5-5.3-11.9-11.9-11.9h-36.6z"></path>
<path fill="currentColor"  d="M49.3 23.9c-0.2 3.4-2.5 8-7.1 13.9-4.7 6.1-8.7 9.2-12 9.2-2 0-3.7-1.9-5.1-5.6l-2.8-10.3c-1-3.7-2.2-5.6-3.4-5.6-1 0.4-1.9 1-2.7 1.6l-1.6-2.1c1.7-1.5 3.4-3 5.1-4.5 2.3-2 4-3 5.1-3.1 2.7-0.3 4.4 1.6 5 5.5 0.7 4.3 1.1 6.9 1.4 8 0.8 3.5 1.6 5.3 2.6 5.3 0.7 0 1.8-1.1 3.3-3.5 1.5-2.3 2.2-4 2.3-5.2 0.2-2-0.6-3-2.3-3-0.9 0-1.8 0.2-2.6 0.6 1.7-5.6 5-8.3 9.8-8.2 3.6 0.2 5.2 2.5 5 7z"></path>
</symbol>
<symbol id="cta-icon-flickr" viewBox="0 0 64 64">
<title>flickr</title>
<path   d="M29.9 32c0 5.136-4.164 9.3-9.3 9.3s-9.3-4.164-9.3-9.3c0-5.136 4.164-9.3 9.3-9.3s9.3 4.164 9.3 9.3z"></path>
<path fill="currentColor"  d="M52.7 32c0 5.136-4.164 9.3-9.3 9.3s-9.3-4.164-9.3-9.3c0-5.136 4.164-9.3 9.3-9.3s9.3 4.164 9.3 9.3z"></path>
<path   d="M44.4 64h-24.8c-10.9 0-19.7-8.8-19.7-19.7v-44.3h44.5c10.9 0 19.8 8.9 19.8 19.8v24.5c-0.1 10.9-8.9 19.7-19.8 19.7zM7.8 7.9v36.4c0 6.5 5.3 11.9 11.9 11.9h24.7c6.5 0 11.9-5.3 11.9-11.9v-24.6c0-6.5-5.3-11.9-11.9-11.9h-36.6z"></path>
</symbol>
<symbol id="cta-icon-forum" viewBox="0 0 64 64">
<title>forum</title>
<path   d="M25.7 34.35c-0-0.032-0-0.070-0-0.108 0-1.768 0.368-3.449 1.032-4.972l-8.351 0.080-10.29 7.31-0.090-28.87 29.23-0.070c4.91 0.090 4.92 4.44 4.92 5.87v10h8v-10c0-10.080-6.88-13.77-12.85-13.87l-37.3 0.090 0.13 52.32 20.79-14.77h4.77z"></path>
<path fill="currentColor"  d="M63.9 64l-16.16-11.46-22.090-0.050v-18.13c0-7.35 5-10.73 10-10.81l28.35 0.060zM32.67 45.5h17.35l6.92 4.92v-19.88l-21.22-0.050c-2.7 0-3.060 2.070-3.060 3.83z"></path>
</symbol>
<symbol id="cta-icon-education" viewBox="0 0 64 64">
<title>education</title>
<path   d="M37 37.86c-1.447 0.508-3.116 0.801-4.853 0.801-0.051 0-0.103-0-0.154-0.001-0.036 0.001-0.087 0.001-0.139 0.001-1.737 0-3.406-0.293-4.96-0.833l-10.994-4.038v3.37c2.066 1.242 3.427 3.472 3.427 6.019 0 1.208-0.306 2.345-0.845 3.337 3.92 1.559 8.449 2.485 13.193 2.485 0.114 0 0.229-0.001 0.343-0.002 11.983 0 21.683-5.080 21.683-11.35v-5.9z"></path>
<path fill="currentColor"  d="M62.44 21.84l-26.67-9.78c-1.066-0.363-2.293-0.572-3.57-0.572-0.070 0-0.141 0.001-0.211 0.002-0.049-0.001-0.119-0.002-0.19-0.002-1.276 0-2.504 0.209-3.65 0.595l-26.589 9.756c-2.080 0.76-2.080 2 0 2.77l12.2 4.47 17.67-7.25c0.169-0.071 0.364-0.112 0.57-0.112 0.83 0 1.502 0.673 1.502 1.502 0 0.624-0.381 1.159-0.922 1.386l-14.65 6.004 10.29 3.78c1.099 0.387 2.366 0.61 3.685 0.61 0.033 0 0.067-0 0.1-0 0.054 0.001 0.125 0.002 0.195 0.002 1.276 0 2.504-0.209 3.65-0.595l26.589-9.756c2.080-0.8 2.080-2.040 0-2.81z"></path>
<path fill="currentColor"  d="M16.3 43.18c-0.003-1.665-1.024-3.091-2.473-3.69l-0.027-11.090c0-0.828-0.672-1.5-1.5-1.5s-1.5 0.672-1.5 1.5v11.070c-1.473 0.612-2.489 2.039-2.489 3.704 0 1.103 0.447 2.103 1.169 2.826-0.649 1.126-1.074 2.458-1.178 3.879l-0.002 0.031c0.006 1.434 1.166 2.594 2.599 2.6h2.791c1.434-0.006 2.594-1.166 2.6-2.599v-0.001c-0.106-1.452-0.531-2.784-1.204-3.955 0.753-0.674 1.206-1.671 1.214-2.773z"></path>
</symbol>
<symbol id="cta-icon-audio" viewBox="0 0 64 64">
<title>audio</title>
<path fill="currentColor"  d="M20.8 13.68l-10.8 10.87h-5c-2.761 0-5 2.239-5 5v4.9c0 2.761 2.239 5 5 5h5l10.8 10.87c0.376 0.376 0.896 0.608 1.47 0.608 1.148 0 2.079-0.93 2.080-2.078v-33.7c-0.001-1.148-0.932-2.078-2.080-2.078-0.574 0-1.094 0.232-1.47 0.608z"></path>
<path   d="M32.67 45.070l-4.25-4.24c2.25-2.264 3.64-5.385 3.64-8.83s-1.39-6.566-3.641-8.831l4.251-4.239c3.331 3.351 5.391 7.97 5.391 13.070s-2.059 9.719-5.392 13.071z"></path>
<path   d="M42 53.51l-4.25-4.24c4.401-4.428 7.122-10.531 7.122-17.27s-2.721-12.842-7.123-17.271l4.251-4.239c5.483 5.515 8.873 13.117 8.873 21.51s-3.389 15.995-8.874 21.511z"></path>
<path   d="M51.25 62.85l-4.25-4.24c6.782-6.823 10.974-16.227 10.974-26.61s-4.192-19.787-10.976-26.612l4.252-4.238c7.864 7.91 12.724 18.812 12.724 30.85s-4.861 22.94-12.726 30.852z"></path>
</symbol>
<symbol id="cta-icon-doc" viewBox="0 0 64 64">
<title>doc</title>
<path fill="currentColor"  d="M47.51 32.62c0-4.31 2.090-7.060 5.63-7.66v-24.9h-53.14v50.82c0 7.246 5.874 13.12 13.12 13.12h40v-23.72c-3.52-0.6-5.61-3.36-5.61-7.66zM45.85 56.71h-32.73c-3.217-0.006-5.824-2.612-5.83-5.829v-43.531h38.56z"></path>
<path fill="currentColor"  d="M50.77 32.62c0 2.61 0.77 4.12 2.36 4.69v-9.38c-1.58 0.56-2.36 2.070-2.36 4.69z"></path>
<path   d="M38.59 27.52c-2.83 0-3.91 2.12-3.91 5.12s1.080 5.12 3.91 5.12 3.91-2.12 3.91-5.12-1.090-5.12-3.91-5.12z"></path>
<path   d="M22.56 27.78h-2.35v9.7h2.34c2.83 0 3.91-2 3.91-4.84s-1.080-4.86-3.9-4.86z"></path>
<path   d="M59 18.29h-41c-2.761 0-5 2.239-5 5v17.42c0 2.761 2.239 5 5 5h41c2.761 0 5-2.239 5-5v-17.42c0-2.761-2.239-5-5-5zM22.56 40.11h-5.39c-0.010 0.002-0.021 0.004-0.032 0.004-0.068 0-0.125-0.049-0.137-0.113l-0-14.721c0-0.077 0.063-0.14 0.14-0.14h5.39c5.15 0 7.11 3.24 7.11 7.5s-1.93 7.47-7.080 7.47zM38.56 40.43c-5.15 0-7.11-3.44-7.11-7.78s2-7.78 7.11-7.78 7.11 3.44 7.11 7.78-1.93 7.78-7.080 7.78zM54.8 37.58c0.112 0.014 0.241 0.022 0.372 0.022 1.366 0 2.531-0.855 2.991-2.060 0.007-0.102 0.067-0.142 0.147-0.142h2.18c0.1 0 0.12 0 0.16 0.14l0.35 1.14c-0.48 1.54-2.1 3.72-6.35 3.72-4.45 0-7.15-2.9-7.15-7.78s2.71-7.78 7.15-7.78c4.25 0 5.87 2.16 6.35 3.7l-0.36 1.16c-0.005 0.079-0.070 0.14-0.15 0.14-0.004 0-0.007-0-0.011-0h-2.2c-0.069-0.003-0.126-0.053-0.14-0.119-0.18-0.561-0.84-2.061-3.35-2.061-2.72 0-4 1.54-4 5s1.29 4.92 4.010 4.92z"></path>
</symbol>
<symbol id="cta-icon-pdf" viewBox="0 0 64 64">
<title>pdf</title>
<path fill="currentColor"  d="M52.31 27.74h0.82v3.8h-0.82v-3.8z"></path>
<path fill="currentColor"  d="M52.31 34.14v5.86c0 0.1 0 0.12-0.14 0.12h-3c-0.080 0-0.1 0-0.1-0.12v-14.72c0-0.077 0.063-0.14 0.14-0.14h3.91v-25.14h-53.12v50.85c0 0.009-0 0.019-0 0.030 0 7.246 5.874 13.12 13.12 13.12 0 0 0 0 0 0h40v-29.86zM45.85 56.68h-32.73c-3.217-0.006-5.824-2.612-5.83-5.829v-43.531h38.56v21.43c0.463 1.086 0.732 2.349 0.732 3.676 0 0.075-0.001 0.151-0.003 0.225 0.002 0.050 0.002 0.123 0.002 0.195 0 1.319-0.269 2.574-0.756 3.715z"></path>
<path   d="M26.18 27.72h-3v4.28h3c1.52 0 2.26-0.7 2.26-2.1s-0.66-2.18-2.26-2.18z"></path>
<path   d="M39.46 27.78h-2.34v9.7h2.34c2.83 0 3.91-2 3.91-4.84s-1.080-4.86-3.91-4.86z"></path>
<path   d="M59 18.29h-41c-2.761 0-5 2.239-5 5v17.42c0 2.761 2.239 5 5 5h41c2.761 0 5-2.239 5-5v-17.42c0-2.761-2.239-5-5-5zM26.18 34.5h-3v5.5c0 0.077-0.063 0.14-0.14 0.14h-2.87c-0.009 0.002-0.019 0.003-0.030 0.003-0.077 0-0.14-0.063-0.14-0.14 0-0.001 0-0.002 0-0.003v-14.68c-0.001-0.006-0.001-0.014-0.001-0.021 0-0.088 0.072-0.16 0.16-0.16 0.008 0 0.015 0 0.022 0.002l5.999-0c3.79 0 5.25 2 5.25 4.7s-1.43 4.66-5.25 4.66zM39.47 40.1h-5.39c-0.077 0-0.14-0.063-0.14-0.14v-14.68c0-0.077 0.063-0.14 0.14-0.14h5.39c5.15 0 7.11 3.24 7.11 7.5s-1.97 7.47-7.12 7.47zM59.24 27.62c0 0.1 0 0.12-0.12 0.12h-6.81v3.8h6.15c0.16 0 0.2 0 0.2 0.16v2.3c0 0.1 0 0.12-0.14 0.12h-6.21v5.88c0 0.1 0 0.12-0.14 0.12h-3c-0.080 0-0.1 0-0.1-0.12v-14.72c0-0.077 0.063-0.14 0.14-0.14h9.84c0.14 0 0.18 0 0.18 0.2z"></path>
</symbol>
<symbol id="cta-icon-ppt" viewBox="0 0 64 64">
<title>ppt</title>
<path fill="currentColor"  d="M51.47 40.11c-0.1 0-0.12 0-0.12-0.12v-12.23h-4.11c-0.080 0-0.1 0-0.1-0.12v-2.36c0-0.12 0-0.14 0.1-0.14h5.89v-25.080h-53.13v50.82c0 7.246 5.874 13.12 13.12 13.12h40v-23.89zM45.85 56.71h-32.73c-3.217-0.006-5.824-2.612-5.83-5.829v-43.531h38.56v21.46c0.056 0.311 0.087 0.669 0.087 1.035s-0.032 0.724-0.093 1.072z"></path>
<path   d="M27.18 27.72h-3v4.28h3c1.52 0 2.26-0.7 2.26-2.1s-0.66-2.18-2.26-2.18z"></path>
<path   d="M40.68 27.72h-3v4.28h3c1.52 0 2.26-0.7 2.26-2.1s-0.65-2.18-2.26-2.18z"></path>
<path   d="M59 18.29h-41c-2.761 0-5 2.239-5 5v17.42c0 2.761 2.239 5 5 5h41c2.761 0 5-2.239 5-5v-17.42c0-2.761-2.239-5-5-5zM27.18 34.5h-3v5.5c0 0.077-0.063 0.14-0.14 0.14h-2.87c-0.009 0.002-0.019 0.003-0.030 0.003-0.077 0-0.14-0.063-0.14-0.14 0-0.001 0-0.002 0-0.003v-14.68c-0.001-0.006-0.001-0.014-0.001-0.021 0-0.088 0.072-0.16 0.16-0.16 0.008 0 0.015 0 0.022 0.002l5.999-0c3.79 0 5.25 2 5.25 4.7s-1.43 4.66-5.25 4.66zM40.69 34.5h-3v5.5c0 0.077-0.063 0.14-0.14 0.14h-2.88c-0.077 0-0.14-0.063-0.14-0.14v-14.68c-0.001-0.006-0.001-0.014-0.001-0.021 0-0.088 0.072-0.16 0.16-0.16 0.008 0 0.015 0 0.022 0.002l5.999-0c3.79 0 5.25 2 5.25 4.7s-1.49 4.66-5.28 4.66zM58.84 27.64c0 0.1 0 0.12-0.1 0.12h-4.15v12.24c0 0.1 0 0.12-0.14 0.12h-3c-0.1 0-0.12 0-0.12-0.12v-12.24h-4.090c-0.080 0-0.1 0-0.1-0.12v-2.36c0-0.12 0-0.14 0.1-0.14h11.5c0.080 0 0.1 0 0.1 0.14z"></path>
</symbol>
<symbol id="cta-icon-slideshow" viewBox="0 0 64 64">
<title>slideshow</title>
<path   d="M55.5 0h-26c-4.692 0.006-8.494 3.808-8.5 8.499v5.251h-1.14c-4.692 0.006-8.494 3.808-8.5 8.499v4.001h7v-4c0-0.828 0.672-1.5 1.5-1.5h26c0.828 0 1.5 0.672 1.5 1.5v20.75c0 0.828-0.672 1.5-1.5 1.5h-2.86v7h2.86c4.692-0.006 8.494-3.808 8.5-8.499v-5.261h1.14c4.692-0.006 8.494-3.808 8.5-8.499v-20.741c-0.006-4.692-3.808-8.494-8.499-8.5zM57 29.24c0 0.828-0.672 1.5-1.5 1.5h-1.16v-8.49c-0.006-4.692-3.808-8.494-8.499-8.5h-17.841v-5.25c0-0 0-0 0-0 0-0.828 0.672-1.5 1.5-1.5 0.007 0 0.014 0 0.021 0h25.999c0.82 0.011 1.48 0.678 1.48 1.5 0 0 0 0 0 0z"></path>
<path fill="currentColor"  d="M34.48 64h-34.48v-29.24c0.006-4.692 3.808-8.494 8.499-8.5h26.001c4.692 0.006 8.494 3.808 8.5 8.499v20.741c-0.006 4.696-3.814 8.5-8.51 8.5-0.004 0-0.007 0-0.011 0zM7 57h27.48c0.006 0 0.013 0 0.020 0 0.828 0 1.5-0.672 1.5-1.5 0-0 0-0 0-0v-20.74c0-0.828-0.672-1.5-1.5-1.5h-26c-0.828 0-1.5 0.672-1.5 1.5z"></path>
</symbol>
<symbol id="cta-icon-video" viewBox="0 0 64 64">
<title>video</title>
<path   d="M45.35 54.67h-35.35c-5.523 0-10-4.477-10-10v-25.34c0-5.523 4.477-10 10-10h25.35c5.523 0 10 4.477 10 10zM10 19.33v25.34h25.35v-25.34z"></path>
<path fill="currentColor"  d="M59.71 9.85l-14.36 14.36v-5.87c0-4.971-4.029-9-9-9h-26.35v10h25.35v35.11h10v-14.66l14.36 14.36c0.455 0.457 1.084 0.74 1.78 0.74 1.386 0 2.51-1.124 2.51-2.51 0-0 0-0 0-0v-40.76c0-0 0-0 0-0 0-1.386-1.124-2.51-2.51-2.51-0.696 0-1.325 0.283-1.78 0.74z"></path>
</symbol>
<symbol id="cta-icon-xls" viewBox="0 0 64 64">
<title>xls</title>
<path fill="currentColor"  d="M46.060 35.4h2c0.001 0 0.001 0 0.002 0 0.091 0 0.168 0.058 0.197 0.139 0.421 1.28 1.604 2.186 2.999 2.186 0.060 0 0.12-0.002 0.18-0.005 0.035 0.002 0.085 0.004 0.135 0.004 0.558 0 1.084-0.138 1.545-0.382l-0.018-2.731c-0.305-0.162-0.658-0.297-1.030-0.384l-2.74-0.666c-1.69-0.41-3.2-1.14-3.52-3.18v5.18c0.003-0.097 0.083-0.174 0.18-0.174 0.025 0 0.049 0.005 0.071 0.015z"></path>
<path fill="currentColor"  d="M49.12 29.34c0 1.14 0.92 1.5 2.2 1.82l1.81 0.44v-3.6c-0.45-0.308-1.007-0.492-1.607-0.492-0.036 0-0.072 0.001-0.109 0.002-1.585 0.010-2.295 0.77-2.295 1.83z"></path>
<path fill="currentColor"  d="M51.39 40.41c-3.33 0-4.83-1.47-5.54-2.8v19.1h-32.73c-3.217-0.006-5.824-2.612-5.83-5.829v-43.531h38.56v21.41c0.4-2.58 2.76-3.92 5.66-3.92 0.005 0 0.011 0 0.018 0 0.57 0 1.128 0.055 1.667 0.159l-0.055-24.939h-53.14v50.82c0 7.246 5.874 13.12 13.12 13.12h40v-23.76c-0.517 0.108-1.111 0.17-1.719 0.17-0.004 0-0.007 0-0.011 0z"></path>
<path   d="M59 18.29h-41c-2.761 0-5 2.239-5 5v17.42c0 2.761 2.239 5 5 5h41c2.761 0 5-2.239 5-5v-17.42c0-2.761-2.239-5-5-5zM32.29 40c-0.014 0.078-0.080 0.136-0.16 0.14h-2.63c-0 0-0.001 0-0.001 0-0.075 0-0.141-0.040-0.178-0.099l-3.32-5.861-3.41 5.82c-0.038 0.060-0.104 0.1-0.179 0.1-0 0-0.001 0-0.001 0h-2.58c-0.080-0.004-0.146-0.062-0.16-0.139l-0.14-1.241 4.13-6.2-3.95-6 0.14-1.24c0.014-0.078 0.080-0.136 0.16-0.14h2.63c0 0 0.001 0 0.001 0 0.075 0 0.141 0.040 0.178 0.099l3.18 5.581 3.17-5.58c0.038-0.060 0.104-0.1 0.179-0.1 0 0 0.001 0 0.001 0h2.58c0.080 0.004 0.146 0.062 0.16 0.139l0.14 1.241-3.87 6 4.070 6.24zM44.55 40c0 0.1 0 0.12-0.12 0.12h-9.75c-0.12 0-0.14 0-0.14-0.14v-14.7c0-0.12 0-0.14 0.1-0.14h3c0.1 0 0.14 0 0.14 0.14v12.13h6.67c0.1 0 0.12 0 0.12 0.14zM51.38 40.42c-3.87 0-5.27-2-5.83-3.42l0.32-1.42c0.010-0.090 0.087-0.16 0.179-0.16 0 0 0.001 0 0.001 0h2c0.001 0 0.001 0 0.002 0 0.091 0 0.168 0.058 0.197 0.139 0.421 1.28 1.604 2.186 2.999 2.186 0.060 0 0.12-0.002 0.18-0.005 1.632 0 2.472-0.7 2.472-1.78s-0.76-1.44-1.88-1.72l-2.71-0.66c-1.9-0.46-3.59-1.32-3.59-4 0-3.1 2.54-4.72 5.73-4.72 3.81 0 5 2 5.57 3.42l-0.32 1.42c-0.005 0.090-0.079 0.16-0.17 0.16-0.004 0-0.007-0-0.011-0h-1.999c-0.001 0-0.001 0-0.002 0-0.091 0-0.168-0.058-0.197-0.139-0.332-1.266-1.464-2.183-2.81-2.183-0.035 0-0.070 0.001-0.105 0.002-1.595-0-2.295 0.76-2.295 1.82s0.92 1.5 2.2 1.82l2.54 0.62c1.82 0.44 3.43 1.34 3.43 3.94 0.020 3.030-2.63 4.67-5.89 4.67z"></path>
</symbol>
<symbol id="cta-icon-reload" viewBox="0 0 64 64">
<title>reload</title>
<path   d="M54.25 9.51c-5.785-5.824-13.778-9.448-22.618-9.51l-0.272-0c-0.034-0-0.074-0-0.114-0-8.692 0-16.56 3.532-22.245 9.239l10.719 10.761c2.954-2.959 7.038-4.79 11.55-4.79 0.032 0 0.063 0 0.095 0h0.135c4.696 0.040 8.934 1.967 11.999 5.059 3.328 3.052 5.405 7.419 5.405 12.27 0 9.184-7.446 16.63-16.63 16.63-4.854 0-9.223-2.080-12.263-5.397-0.792-0.792-1.5-1.646-2.122-2.562l-0.109-0.211-12.19 9.13c1.144 1.627 2.347 3.054 3.661 4.37 5.849 5.868 13.939 9.499 22.879 9.499 0.004 0 0.008 0 0.012 0 0.030 0 0.067 0 0.103 0 8.698 0 16.573-3.523 22.276-9.22 5.715-5.778 9.246-13.726 9.246-22.5 0-8.908-3.64-16.965-9.513-22.767z"></path>
<path fill="currentColor"  d="M24 25.39l-23.18 3.31c-0.023 0.004-0.049 0.006-0.076 0.006-0.271 0-0.49-0.219-0.49-0.49 0-0.027 0.002-0.053 0.006-0.079l3.31-23.227c0.037-0.232 0.235-0.407 0.474-0.407 0.136 0 0.258 0.056 0.345 0.147l19.92 19.92c0.088 0.087 0.142 0.208 0.142 0.341 0 0.255-0.199 0.464-0.451 0.479z"></path>
</symbol>
<symbol id="cta-icon-request" viewBox="0 0 64 64">
<title>request</title>
<path   d="M26.64 47.2c0-0.007 0-0.016 0-0.024 0-3.594 0.934-6.97 2.573-9.899l-17.583 0.103v-23.24h40.74v13.34c4.854 1.331 8.886 4.267 11.585 8.191l0.045-22.671c0-7.42-4.8-10.28-9.29-10.48h-54.71v36c0 7.41 4.81 10.27 9.3 10.48h17.44c-0.060-0.6-0.1-1.2-0.1-1.8z"></path>
<path fill="currentColor"  d="M0.19 13.010h63.62l-32.25 12.040-31.37-12.040z"></path>
<path fill="currentColor"  d="M0 13.070v-10.73h54.64s9.36 0 9.36 10.73z"></path>
<path fill="currentColor"  d="M47.14 61.66c-1.938 0-3.51-1.572-3.51-3.51v-24.9c-0.006-0.079-0.010-0.172-0.010-0.265 0-1.939 1.572-3.51 3.51-3.51s3.51 1.572 3.51 3.51c0 0.093-0.004 0.185-0.011 0.277l0.001 24.888c0 0 0 0 0 0 0 1.931-1.56 3.499-3.489 3.51z"></path>
<path   d="M32.56 41.98h29.040v7.030h-29.040v-7.030z"></path>
</symbol>
<symbol id="cta-icon-volunteer" viewBox="0 0 64 64">
<title>volunteer</title>
<path fill="currentColor"  d="M59.56 9.16c-3.044-3.148-7.306-5.102-12.024-5.102-0.087 0-0.173 0.001-0.259 0.002-0.068-0.002-0.164-0.002-0.261-0.002-4.688 0-8.918 1.956-11.921 5.096-1.197 1.197-2.223 2.552-3.048 4.034l-0.047 46.753c0.381-0.014 0.727-0.151 1.003-0.373l22.047-22.167c3.058-2.914 5.54-6.401 7.278-10.294 1.069-2.333 1.644-4.823 1.644-7.448 0-0.913-0.070-1.811-0.204-2.686-0.571-3.031-2.075-5.739-4.204-7.809z"></path>
<path   d="M4.44 9.16c3.044-3.148 7.306-5.102 12.024-5.102 0.087 0 0.173 0.001 0.259 0.002 0.068-0.002 0.164-0.002 0.261-0.002 4.688 0 8.918 1.956 11.921 5.096 1.197 1.197 2.223 2.552 3.049 4.034l0.047 46.753c-0.381-0.014-0.727-0.151-1.003-0.373l-22.047-22.167c-3.058-2.914-5.54-6.401-7.278-10.294-1.069-2.333-1.644-4.823-1.644-7.448 0-0.913 0.070-1.811 0.204-2.686 0.571-3.031 2.075-5.739 4.204-7.809z"></path>
</symbol>
<symbol id="cta-icon-gallery" viewBox="0 0 64 64">
<title>gallery</title>
<path   d="M29.38 29.42h-20.88c-4.692-0.006-8.494-3.808-8.5-8.499v-20.921h20.88c4.692 0.006 8.494 3.808 8.5 8.499zM7 7v13.92c0 0.828 0.672 1.5 1.5 1.5h13.88v-13.92c0-0.828-0.672-1.5-1.5-1.5z"></path>
<path   d="M20.88 64h-20.88v-20.92c0.006-4.692 3.808-8.494 8.499-8.5h20.881v20.92c-0.006 4.692-3.808 8.494-8.499 8.5zM7 57h13.88c0.828 0 1.5-0.672 1.5-1.5v-13.92h-13.88c-0.828 0-1.5 0.672-1.5 1.5z"></path>
<path   d="M55.5 29.42h-20.88v-20.92c0.006-4.692 3.808-8.494 8.499-8.5h20.881v20.92c-0.006 4.692-3.808 8.494-8.499 8.5zM41.62 22.42h13.88c0.828 0 1.5-0.672 1.5-1.5v-13.92h-13.88c-0.828 0-1.5 0.672-1.5 1.5z"></path>
<path fill="currentColor"  d="M64 64h-20.88c-4.692-0.006-8.494-3.808-8.5-8.499v-20.921h20.88c4.692 0.006 8.494 3.808 8.5 8.499zM41.62 41.58v13.92c0 0.828 0.672 1.5 1.5 1.5h13.88v-13.92c0-0.828-0.672-1.5-1.5-1.5z"></path>
</symbol>
<symbol id="cta-icon-google-plus" viewBox="0 0 64 64">
<title>google-plus</title>
<path   d="M44.26 64h-24.53c-10.885-0.011-19.707-8.827-19.73-19.708v-44.292h44.26c10.893 0.006 19.723 8.829 19.74 19.718v24.562c-0.017 10.891-8.847 19.714-19.739 19.72zM7.89 7.89v36.4c0.017 6.528 5.31 11.814 11.839 11.82h24.531c0 0 0 0 0 0 6.538 0 11.839-5.294 11.85-11.829v-24.561c-0.011-6.536-5.312-11.83-11.85-11.83 0 0 0 0 0 0z"></path>
<path fill="currentColor"  d="M10.3 31.31c0.367-7.317 6.389-13.11 13.764-13.11 0.002 0 0.004 0 0.007 0 0.018-0 0.040-0 0.062-0 3.509 0 6.717 1.291 9.174 3.425-1.148 1.282-2.291 2.466-3.491 3.591-3.167-2.145-7.627-2.765-10.767-0.255-4.49 3.11-4.69 10.44-0.38 13.78 4.2 3.81 12.14 1.92 13.3-3.92-2.63 0-5.27 0-7.9-0.090 0-1.57 0-3.14 0-4.71 4.4 0 8.79 0 13.2 0 0.26 3.69-0.22 7.62-2.49 10.67-3.44 4.85-10.33 6.31-15.71 4.19-5.188-2.069-8.788-7.050-8.788-12.871 0-0.246 0.006-0.49 0.019-0.733z"></path>
<path fill="currentColor"  d="M45.85 26.060h3.92c0 1.31 0 2.63 0 3.94h3.94v4h-3.91q0 2 0 3.94h-3.96c0-1.31 0-2.62 0-3.94h-3.94v-4h3.94q-0.020-2 0.010-3.94z"></path>
</symbol>
<symbol id="cta-icon-ticket" viewBox="0 0 64 64">
<title>ticket</title>
<path fill="currentColor"  d="M32.48 49.77c0-0.51 0-1 0.080-1.52l-3.71 2.85c-0.907 0.705-2.062 1.13-3.316 1.13-0.001 0-0.003 0-0.004 0-0.107 0.008-0.233 0.012-0.36 0.012s-0.252-0.004-0.377-0.013c-1.47-0.193-2.748-0.964-3.604-2.076l-9.879-12.923c-0.707-0.913-1.134-2.074-1.134-3.335 0-1.76 0.831-3.325 2.122-4.326l22.862-17.569c0.913-0.705 2.073-1.13 3.333-1.13 1.759 0 3.325 0.829 4.328 2.118l9.879 12.862c0.69 0.905 1.106 2.051 1.106 3.295 0 1.056-0.3 2.043-0.819 2.879 2.175 0.302 4.121 0.968 5.888 1.924l3.135-2.527c1.19-0.923 1.949-2.354 1.949-3.961 0-1.148-0.387-2.206-1.038-3.050l-4.321-5.618c-1.091 1.016-2.559 1.639-4.172 1.639-3.386 0-6.13-2.744-6.13-6.13 0-2.182 1.14-4.098 2.857-5.184l0.025-0.015-4.33-5.63c-0.923-1.19-2.354-1.949-3.961-1.949-1.148 0-2.206 0.387-3.050 1.038l-37.898 29.121c-1.19 0.923-1.949 2.354-1.949 3.961 0 1.148 0.387 2.206 1.038 3.050l4.321 5.618c1.073-0.946 2.492-1.524 4.044-1.524 3.386 0 6.13 2.745 6.13 6.13 0 2.108-1.064 3.967-2.683 5.070l-0.021 0.014 4.33 5.63c0.923 1.19 2.354 1.949 3.961 1.949 1.148 0 2.206-0.387 3.050-1.038l8.818-6.771c-0.302-1.196-0.483-2.573-0.5-3.989z"></path>
<path fill="currentColor"  d="M49.87 31.19c0.595-0.46 0.974-1.173 0.974-1.975 0-0.573-0.193-1.1-0.518-1.521l-9.866-12.844c-0.46-0.586-1.168-0.959-1.964-0.959-0.564 0-1.085 0.188-1.502 0.504l-22.864 17.535c-0.595 0.46-0.974 1.173-0.974 1.975 0 0.573 0.193 1.1 0.518 1.521l9.866 12.844c0.386 0.531 0.967 0.899 1.637 0.998 0.091 0.010 0.181 0.015 0.272 0.015 0.591 0 1.132-0.209 1.556-0.557l6.516-4.997c2.404-6.548 8.325-11.251 15.414-11.846z"></path>
<path fill="currentColor"  d="M50.11 62.47c-1.657 0-3-1.343-3-3v-19c0-1.657 1.343-3 3-3s3 1.343 3 3v19c0 1.657-1.343 3-3 3z"></path>
<path   d="M38.96 46.83h22.21v5.97h-22.21v-5.97z"></path>
</symbol>
<symbol id="cta-icon-policies" viewBox="0 0 64 64">
<title>policies</title>
<path fill="currentColor"  d="M29.12 56.66h-16c-3.214 0-5.82-2.606-5.82-5.82v-43.44h38.45v18.91c2.621 0.026 5.109 0.564 7.379 1.518l-0.129-27.698h-53v50.71c0 7.229 5.861 13.090 13.090 13.090h24.66c-3.581-1.584-6.514-4.079-8.584-7.197z"></path>
<path fill="currentColor"  d="M50.964 56.48l5.788-5.493 7.248 7.638-5.788 5.493-7.248-7.638z"></path>
<path   d="M46.25 60.51c-8.049-0.011-14.57-6.539-14.57-14.59 0-8.058 6.532-14.59 14.59-14.59s14.59 6.532 14.59 14.59c-0.017 8.058-6.55 14.584-14.609 14.59zM46.25 39.31c-3.642 0.011-6.59 2.966-6.59 6.61 0 3.651 2.959 6.61 6.61 6.61s6.61-2.959 6.61-6.61c-0.011-3.648-2.971-6.6-6.62-6.6-0.004 0-0.007 0-0.011 0z"></path>
<path   d="M33.13 23.36h-14.88c-1.435-0.090-2.565-1.275-2.565-2.725s1.13-2.635 2.557-2.725l14.888-0c1.435 0.090 2.565 1.275 2.565 2.725s-1.13 2.635-2.557 2.725z"></path>
<path   d="M27.65 34.77h-9.4c-0.049 0.003-0.107 0.005-0.165 0.005-1.508 0-2.73-1.222-2.73-2.73s1.222-2.73 2.73-2.73c0.058 0 0.116 0.002 0.173 0.005l9.392-0c1.435 0.090 2.565 1.275 2.565 2.725s-1.13 2.635-2.557 2.725z"></path>
<path   d="M24.52 46.18h-6.27c-1.435-0.090-2.565-1.275-2.565-2.725s1.13-2.635 2.557-2.725l6.268-0c1.435 0.090 2.565 1.275 2.565 2.725s-1.13 2.635-2.557 2.725z"></path>
</symbol>
<symbol id="cta-icon-patients" viewBox="0 0 64 64">
<title>patients</title>
<path   d="M49.070 17.29c0 9.428-7.642 17.070-17.070 17.070s-17.070-7.642-17.070-17.070c0-9.428 7.642-17.070 17.070-17.070s17.070 7.643 17.070 17.070z"></path>
<path   d="M31.27 57.63c-1.386-1.339-2.51-2.94-3.293-4.725-0.555-1.252-0.857-2.603-0.857-4.023 0-0.562 0.047-1.113 0.138-1.65 0.339-1.823 1.237-3.453 2.51-4.701 0.331-0.328 0.683-0.633 1.055-0.913-6.174-0.323-11.717-2.911-15.827-6.952-7.187 1.263-10.487 6.233-10.487 12.103v8.28c0 8.86 8 8.86 17.74 8.86h15.28z"></path>
<path   d="M49 34.66c-2.482 2.431-5.487 4.338-8.83 5.537 0.505 0.292 1.086 0.572 1.63 0.906 1.408-0.915 3.162-1.443 5.040-1.443 2.701 0 5.147 1.093 6.919 2.86 1.276 1.252 2.174 2.885 2.511 4.715 0.090 0.531 0.137 1.080 0.137 1.64 0 1.419-0.301 2.768-0.844 3.986-0.795 1.817-1.919 3.418-3.301 4.754l-6.224 6.254c7.65-0.18 13.36-1.34 13.36-8.82v-8.28c0.090-6-3.22-10.88-10.4-12.11z"></path>
<path fill="currentColor"  d="M52.44 48c-0.205-1.047-0.717-1.951-1.438-2.638-1.020-1.057-2.447-1.712-4.027-1.712-0.026 0-0.053 0-0.079 0.001-0.023-0.001-0.054-0.001-0.085-0.001-1.569 0-2.985 0.656-3.989 1.709-0.387 0.401-0.72 0.855-0.986 1.35-0.298-0.495-0.631-0.949-1.018-1.349-1.004-1.053-2.42-1.709-3.989-1.709-0.031 0-0.063 0-0.094 0.001-0.018-0-0.044-0.001-0.071-0.001-1.58 0-3.006 0.655-4.023 1.709-0.732 0.689-1.251 1.593-1.456 2.61-0.046 0.291-0.069 0.591-0.069 0.895 0 0.879 0.193 1.713 0.539 2.462 0.593 1.334 1.423 2.499 2.441 3.469l7.394 7.424c0.084 0.078 0.196 0.126 0.32 0.126s0.236-0.048 0.32-0.126l7.39-7.42c1.030-0.973 1.866-2.139 2.452-3.441 0.349-0.772 0.536-1.595 0.536-2.461 0-0.317-0.025-0.628-0.073-0.931z"></path>
</symbol>
<symbol id="cta-icon-pay" viewBox="0 0 64 64">
<title>pay</title>
<path fill="currentColor"  d="M33.74 36v3.25c0 0.16-0.050 0.21-0.23 0.21h-3c-0.21 0-0.26-0.050-0.26-0.21v-3.2c-2.687-0.197-4.926-1.923-5.864-4.304l0.404-1.896c0.011-0.118 0.109-0.21 0.229-0.21 0 0 0.001 0 0.001 0h2.65c0.002-0 0.003-0 0.005-0 0.117 0 0.216 0.074 0.254 0.178 0.548 1.666 2.088 2.847 3.904 2.847 0.073 0 0.145-0.002 0.217-0.006 2.12 0 3.22-0.91 3.22-2.32s-1-1.87-2.45-2.24l-3.51-0.86c-2.47-0.6-4.66-1.72-4.66-5.2s2.37-5.44 5.59-6v-2.63c0-0.16 0.050-0.23 0.26-0.23h3c0.18 0 0.23 0.080 0.23 0.23v2.59c2.607 0.21 4.759 1.945 5.576 4.305l-0.406 1.895c-0.011 0.118-0.109 0.21-0.229 0.21-0 0-0.001 0-0.001 0h-2.67c-0.002 0-0.004 0-0.005 0-0.117 0-0.216-0.074-0.254-0.178-0.433-1.643-1.903-2.833-3.652-2.833-0.031 0-0.062 0-0.093 0.001-2.075-0-2.995 1-2.995 2.37s1.2 2 2.86 2.37l3.3 0.81c2.37 0.57 4.45 1.74 4.45 5.13s-2.48 5.43-5.87 5.92z"></path>
<path   d="M31.1 50.36c1.173-1.238 2.829-2.009 4.664-2.009 0.118 0 0.235 0.003 0.352 0.010l-0.016-4.171c-1.25 0.303-2.685 0.477-4.16 0.477-10.151 0-18.38-8.229-18.38-18.38s8.229-18.38 18.38-18.38c10.151 0 18.38 8.229 18.38 18.38 0 3.361-0.902 6.51-2.477 9.221 0.738 0.915 1.152 2.155 1.157 3.491v6.541l0.8 0.2c5.261-4.832 8.546-11.743 8.546-19.421 0-14.547-11.793-26.34-26.34-26.34s-26.34 11.793-26.34 26.34c0 13.742 10.524 25.027 23.953 26.233 0.425-0.848 0.893-1.58 1.483-2.195z"></path>
<path fill="currentColor"  d="M54.35 50.58l-8.85-2.25v-9.26c0-1.624-1.316-2.94-2.94-2.94s-2.94 1.316-2.94 2.94v15.45l-1.83-1.73c-0.541-0.61-1.327-0.992-2.202-0.992-1.624 0-2.94 1.316-2.94 2.94 0 0.907 0.411 1.719 1.057 2.258l6.405 6.084c0.442 0.42 1.017 0.703 1.656 0.779 0.243 0.072 0.507 0.116 0.781 0.121l11.803 0c1.105 0 2-0.895 2-2v-9.42c-0.011-1.096-0.902-1.98-2-1.98-0 0-0 0-0 0z"></path>
</symbol>
<symbol id="cta-icon-diversity" viewBox="0 0 64 64">
<title>diversity</title>
<path   d="M9.18 37.070c-0.19-0.64 0.86-1 1.21-1.3 0.389-0.393 0.744-0.821 1.059-1.279l0.021-0.031c0.472-0.526 0.972-1.004 1.506-1.441l0.024-0.019c0.46-0.339 0.982-0.646 1.535-0.898l0.055-0.022c0.62-0.32 1.353-0.509 2.13-0.51h0c0.81 0 1 0.070 1.32 0.82 0.288 0.466 0.571 0.864 0.878 1.243l-0.018-0.023c0.438 0.573 0.88 1.226 1.286 1.903l0.054 0.097c0.15 0.35 0.1 0.53 0.44 0.72 0.343 0.113 0.751 0.207 1.172 0.266l0.038 0.004c0.547 0.188 1.003 0.384 1.441 0.609l-0.061-0.029c0.589 0.324 1.062 0.794 1.381 1.362l0.009 0.018c0.245 0.552 0.455 1.2 0.598 1.874l0.012 0.066c0.080 0.23 0 0.39 0.19 0.61 0.186 0.221 0.404 0.407 0.648 0.553l0.012 0.007c0.3 0.21 0.56 0.48 0.87 0.67s0.63 0.27 0.92 0.45c0.61 0.425 1.141 0.896 1.612 1.421l0.008 0.009c0.857 0.744 1.587 1.604 2.173 2.562l0.027 0.048c0.23 0.45 0.18 0.92 0.44 1.34 0.48 0.78 1 0.7 1.84 0.7 0.152-0.029 0.327-0.045 0.505-0.045 0.469 0 0.911 0.113 1.301 0.312l-0.016-0.008c0.35 0.27 0.62 0.67 0.95 1 0.392 0.293 0.723 0.64 0.99 1.035l0.010 0.015c0.21 0.36 0.35 0.77 0.57 1.13 0.13 0.146 0.252 0.306 0.361 0.475l0.009 0.015c0.080 0.47-0.070 0.25-0.39 0.49-0.090 0.070-0.12 0.16-0.18 0.24-0.077 0.188-0.164 0.349-0.266 0.5l0.006-0.010c-0.124 0.153-0.269 0.283-0.433 0.386l-0.007 0.004c-0.282 0.368-0.577 0.695-0.896 0.996l-0.004 0.004c-0.44 0.46-0.48 1-1.060 1.37-0.682 0.492-1.279 0.977-1.846 1.494l0.016-0.014c-0.631 0.451-1.169 0.98-1.616 1.581l-0.014 0.019c-0.29 0.41-0.38 0.59-0.88 0.67s-0.77 0.15-1.16 0.21-1.32 0.38-1.82 0.16-0.93-1.12-1.11-1.49-0.43-0.74-0.67-1.13c-0.158-0.389-0.325-0.718-0.517-1.030l0.017 0.030c-0.19-0.22-0.27-0.22-0.55-0.25-0.245-0.027-0.468-0.080-0.68-0.156l0.020 0.006c-0.77-0.23-1.49-0.65-2.28-1-0.61-0.25-1.17-0.39-1.75-0.61-0.707-0.344-1.268-0.898-1.611-1.58l-0.009-0.020c-0.323-0.474-0.552-1.038-0.647-1.647l-0.003-0.023c-0.070-0.49 0-0.92-0.12-1.4-0.012-0.362-0.052-0.706-0.117-1.041l0.007 0.041c-0.19-0.37-0.78-0.32-1.13-0.32-0.193 0.028-0.416 0.044-0.643 0.044-0.64 0-1.251-0.126-1.809-0.355l0.032 0.012c-0.644-0.349-1.19-0.79-1.644-1.313l-0.006-0.007c-0.427-0.41-0.693-0.986-0.693-1.624 0-0.041 0.001-0.081 0.003-0.121l-0 0.006c-0.004-0.040-0.006-0.087-0.006-0.134 0-0.26 0.069-0.503 0.19-0.713l-0.004 0.007c0.090-0.19 0.38-0.46 0.41-0.65-0.35-0.1-0.65 0-1-0.18-0.53-0.275-0.946-0.707-1.193-1.234l-0.007-0.016c-0.338-0.835-0.906-1.518-1.624-1.99l-0.016-0.010c-0.59-0.32-1.15-0.6-1.23-1.38 0-0.5-0.21-1.73 0.42-1.88z"></path>
<path   d="M21.59 23c0.070 0.65 0.59 0.81 1.060 1 0.55 0.167 1.182 0.263 1.836 0.263 0.146 0 0.29-0.005 0.433-0.014l-0.019 0.001c0.169 0.017 0.365 0.027 0.563 0.027 0.576 0 1.133-0.083 1.658-0.238l-0.041 0.010c0.3-0.11 0.61-0.22 0.92-0.31 0.454-0.131 0.837-0.39 1.117-0.736l0.003-0.004c0.7-0.67 1.59-1.13 2.33-1.77 0.981-1.034 2.123-1.902 3.389-2.566l0.071-0.034c0.751-0.273 1.635-0.493 2.549-0.622l0.071-0.008c0.36-0.095 0.773-0.149 1.199-0.149 0.187 0 0.371 0.010 0.553 0.031l-0.022-0.002c0.38 0.090 0.49 0.39 0.84 0.58 0.627 0.214 1.17 0.506 1.655 0.871l-0.015-0.011c0.311 0.409 0.544 0.896 0.665 1.425l0.005 0.025c0.057 0.529 0.177 1.013 0.353 1.469l-0.013-0.039c0.429 0.64 0.974 1.169 1.608 1.567l0.022 0.013c0.29 0.19 0.62 0.34 0.92 0.53 0.381 0.214 0.679 0.537 0.855 0.927l0.005 0.013c0.692 1.151 1.508 2.138 2.449 2.99l0.011 0.010c0.86 0.84 1.94 1.2 2.66 2.15 0.399 0.562 0.916 1.015 1.516 1.329l0.024 0.011c0.647 0.18 1.209 0.405 1.737 0.683l-0.047-0.023c0.37 0.28 0.25 0.34 0.81 0.37 0.060 0.009 0.13 0.014 0.201 0.014 0.24 0 0.467-0.057 0.667-0.157l-0.009 0.004c0.51-0.3 0.76-1 1-1.5 0.277-0.472 0.552-1.031 0.788-1.611l0.032-0.089c0.379-0.892 0.774-1.644 1.221-2.361l-0.041 0.071c0.427-0.963 0.731-2.080 0.856-3.25l0.004-0.050c0.13-0.65 0.070-1.31 0.17-1.95 0.070-0.43 0.26-0.9 0.34-1.34 0.050-0.536 0.078-1.16 0.078-1.79s-0.029-1.254-0.084-1.869l0.006 0.079c0-1.11 0.27-2.53-0.15-3.56-0.273-0.653-0.609-1.217-1.011-1.725l0.011 0.015c-0.58-0.91-1.47-1.7-2.11-2.7-0.391-0.65-0.8-1.212-1.253-1.736l0.013 0.016c-0.257-0.199-0.556-0.359-0.879-0.464l-0.021-0.006c-1.326-0.56-2.397-1.089-3.435-1.67l0.175 0.090c-1.103-0.837-2.355-1.582-3.688-2.181l-0.122-0.049c-0.21-0.095-0.455-0.151-0.712-0.151-0.017 0-0.033 0-0.050 0.001l0.002-0h-0.9c-0.687 0.118-1.27 0.257-1.839 0.428l0.109-0.028c-0.31 0-0.61 0-0.92 0-0.51 0-1 0.2-1.51 0.22-1.062 0.093-2.027 0.252-2.966 0.478l0.136-0.028c-0.776 0.11-1.472 0.379-2.080 0.772l0.020-0.012c-0.959 0.786-2.028 1.529-3.153 2.187l-0.117 0.063c-1.43 0.7-2.75 1.62-4.2 2.25-1.167 0.671-2.159 1.5-2.987 2.474l-0.013 0.016c-0.849 0.847-1.63 1.761-2.335 2.735l-0.045 0.065c-0.71 1-1.33 2-2.13 3-0.668 0.86-1.223 1.853-1.616 2.924l-0.024 0.076c-0.255 0.687-0.403 1.481-0.403 2.309 0 0.074 0.001 0.148 0.004 0.222l-0-0.011c0 0.86 0.62 1.14 1.42 1.22z"></path>
<path fill="currentColor"  d="M7.31 36.91c-2.856-3.374-5.155-7.329-6.689-11.647l-0.082-0.263-0.060-0.2c-1.64-8.44 1.13-14 3.73-17.14 3.693-4.366 9.175-7.119 15.3-7.119 4.743 0 9.1 1.651 12.529 4.41l-0.039-0.030c3.389-2.726 7.744-4.375 12.484-4.375 6.123 0 11.603 2.751 15.272 7.085l0.024 0.029c2.61 3.16 5.37 8.7 3.73 17.14-0.62 3.070-3 6.86-4.49 9.13-0.38 0.59-0.77 1.21-0.88 1.43l-3.5-1.75c0.21-0.41 0.58-1 1.090-1.79 1.22-1.9 3.48-5.45 4-7.78 1.060-5.48 0.060-10.29-2.91-13.89-3.031-3.486-7.473-5.677-12.427-5.677-0.166 0-0.332 0.003-0.497 0.007l0.024-0.001c-3.45 0-7.24 1.57-10.67 4.43l-1.25 1.090-1.25-1c-3.43-2.86-7.22-4.43-10.67-4.43-0.149-0.005-0.325-0.008-0.501-0.008-4.912 0-9.321 2.154-12.334 5.57l-0.016 0.018c-3 3.58-4 8.35-2.93 13.8 1.465 4.045 3.517 7.536 6.091 10.569l-0.041-0.049z"></path>
<path fill="currentColor"  d="M23 57.29v0c-0.003 0-0.007 0-0.011 0-1.474 0-2.807-0.6-3.769-1.57l-0-0c-0.965-0.971-1.561-2.308-1.561-3.785s0.596-2.814 1.561-3.785l-0 0 4.89-4.9c0.962-0.97 2.296-1.57 3.769-1.57 0.004 0 0.007 0 0.011 0h-0.001c0.007-0 0.016-0 0.025-0 1.467 0 2.796 0.596 3.755 1.56l0 0c0.965 0.971 1.561 2.308 1.561 3.785s-0.596 2.814-1.561 3.785l0-0-4.89 4.9c-0.962 0.976-2.298 1.58-3.775 1.58-0.002 0-0.003 0-0.005 0h0zM27.89 44.82c-0.001 0-0.002 0-0.003 0-0.609 0-1.16 0.249-1.557 0.65l-0 0-4.89 4.9c-0.402 0.403-0.651 0.96-0.651 1.575s0.249 1.172 0.651 1.575l-0-0c0.397 0.401 0.948 0.65 1.557 0.65 0.001 0 0.002 0 0.003 0h-0c0.004 0 0.008 0 0.013 0 0.609 0 1.16-0.249 1.557-0.65l0-0 4.89-4.9c0.402-0.403 0.651-0.96 0.651-1.575s-0.249-1.172-0.651-1.575l0 0c-0.399-0.402-0.951-0.65-1.562-0.65-0.014 0-0.027 0-0.040 0h0.002z"></path>
<path fill="currentColor"  d="M29.24 63.43c-0.007 0-0.016 0-0.025 0-1.467 0-2.796-0.596-3.755-1.56l-0-0c-0.965-0.971-1.561-2.308-1.561-3.785s0.596-2.814 1.561-3.785l-0 0 4.89-4.9c0.96-0.964 2.288-1.56 3.755-1.56 0.009 0 0.017 0 0.026 0h-0.001c0.003 0 0.007 0 0.011 0 1.474 0 2.807 0.6 3.769 1.57l0 0c0.965 0.971 1.561 2.308 1.561 3.785s-0.596 2.814-1.561 3.785l0-0-4.91 4.88c-0.962 0.97-2.296 1.57-3.769 1.57-0.004 0-0.007 0-0.011 0h0.001zM32.57 51.6l-4.89 4.9c-0.402 0.403-0.651 0.96-0.651 1.575s0.249 1.172 0.651 1.575l-0-0c0.407 0.385 0.959 0.622 1.565 0.622s1.158-0.237 1.566-0.623l-0.001 0.001 4.89-4.9c0.402-0.403 0.651-0.96 0.651-1.575s-0.249-1.172-0.651-1.575l0 0c-0.392-0.372-0.923-0.601-1.507-0.601-0.022 0-0.044 0-0.066 0.001l0.003-0c-0.003 0-0.006 0-0.009 0-0.61 0-1.163 0.248-1.561 0.65l-0 0z"></path>
<path fill="currentColor"  d="M41 56.7v0c-0.057 0.002-0.125 0.004-0.192 0.004-1.239 0-2.367-0.477-3.211-1.257l0.003 0.003-1.070-1.080 2.7-2.69 1.070 1.070c0.227 0.082 0.489 0.129 0.762 0.129 0.485 0 0.934-0.149 1.306-0.404l-0.008 0.005 1-1c0.87-0.87 0.56-2.68-0.3-3.54l2.7-2.69c2.18 2.18 2.83 6.38 0.3 8.92l-1 1c-1.029 0.949-2.41 1.532-3.927 1.532-0.047 0-0.093-0.001-0.14-0.002l0.007 0z"></path>
<path fill="currentColor"  d="M47.41 49.82c-0.009 0-0.020 0-0.030 0-1.712 0-3.261-0.696-4.38-1.82l-0-0-11.62-11.66c-0.199-0.306-0.318-0.68-0.318-1.082 0-1.105 0.895-2 2-2 0.404 0 0.781 0.12 1.095 0.326l-0.008-0.005 11.62 11.65c0.426 0.406 1.004 0.655 1.64 0.655s1.214-0.25 1.641-0.656l-0.001 0.001c0.421-0.423 0.681-1.006 0.681-1.65s-0.26-1.227-0.681-1.65l0 0-11.62-11.65c-0.552-0.362-0.912-0.978-0.912-1.678 0-1.105 0.895-2 2-2 0.703 0 1.321 0.362 1.678 0.911l0.005 0.008 11.62 11.65c1.125 1.13 1.821 2.689 1.821 4.41s-0.696 3.28-1.821 4.41l0-0c-1.12 1.13-2.673 1.83-4.39 1.83-0.007 0-0.014 0-0.021-0h0.001z"></path>
<path fill="currentColor"  d="M53.37 43.76c-1.709-0.006-3.254-0.704-4.37-1.83l-0-0 2.77-2.76c0.426 0.406 1.004 0.655 1.64 0.655s1.214-0.25 1.641-0.656l-0.001 0.001c0.421-0.423 0.681-1.006 0.681-1.65s-0.26-1.227-0.681-1.65l0 0-15.77-15.56-11.43 5.25c-4.77 2.070-7.28 0.16-8.35-1.16-0.87-1.067-1.397-2.443-1.397-3.942 0-1.917 0.861-3.632 2.218-4.78l0.009-0.008 10.33-9.67 2.68 2.85-10.44 9.81c-0.522 0.432-0.852 1.081-0.852 1.806 0 0.561 0.197 1.075 0.526 1.478l-0.003-0.004c0.25 0.3 1 1.23 3.72 0.050l12.62-5.8c0.237-0.107 0.513-0.169 0.804-0.169 0.539 0 1.028 0.213 1.387 0.559l-0.001-0.001 16.66 16.52c1.126 1.132 1.822 2.692 1.822 4.415s-0.696 3.283-1.822 4.415l0-0c-1.12 1.13-2.673 1.83-4.39 1.83-0 0-0 0-0 0v0z"></path>
<path fill="currentColor"  d="M16.94 51.1v0c-0.006 0-0.013 0-0.020 0-1.469 0-2.798-0.596-3.759-1.56l-0-0c-0.965-0.971-1.561-2.308-1.561-3.785s0.596-2.814 1.561-3.785l-0 0 4.84-4.9c0.962-0.97 2.296-1.57 3.769-1.57 0.004 0 0.007 0 0.011 0h-0.001c0.007-0 0.016-0 0.025-0 1.467 0 2.796 0.596 3.755 1.56l0 0c0.965 0.971 1.561 2.308 1.561 3.785s-0.596 2.814-1.561 3.785l0-0-4.89 4.9c-0.953 0.961-2.271 1.559-3.728 1.57h-0.002zM21.83 38.63c-0.001 0-0.002 0-0.003 0-0.609 0-1.16 0.249-1.557 0.65l-0 0-4.89 4.9c-0.402 0.403-0.651 0.96-0.651 1.575s0.249 1.172 0.651 1.575l-0-0c0.407 0.385 0.959 0.622 1.565 0.622s1.158-0.237 1.566-0.623l-0.001 0.001 4.89-4.9c0.402-0.403 0.651-0.96 0.651-1.575s-0.249-1.172-0.651-1.575l0 0c-0.399-0.401-0.951-0.65-1.561-0.65-0.003 0-0.006 0-0.009 0h0z"></path>
<path fill="currentColor"  d="M11.54 45v0c-0.003 0-0.007 0-0.011 0-1.474 0-2.807-0.6-3.769-1.57l-0-0c-0.965-0.971-1.561-2.308-1.561-3.785s0.596-2.814 1.561-3.785l-0 0 4.88-4.86c0.96-0.964 2.288-1.56 3.755-1.56 0.009 0 0.017 0 0.026 0h-0.001c0.010-0 0.022-0 0.035-0 1.467 0 2.796 0.596 3.755 1.56l0 0c0.965 0.971 1.561 2.308 1.561 3.785s-0.596 2.814-1.561 3.785l0-0-4.89 4.9c-0.957 0.946-2.273 1.53-3.726 1.53-0.019 0-0.038-0-0.057-0h0.003zM16.43 32.53c-0.001 0-0.002 0-0.003 0-0.609 0-1.16 0.249-1.557 0.65l-0 0-4.87 4.94c-0.402 0.403-0.651 0.96-0.651 1.575s0.249 1.172 0.651 1.575l-0-0c0.397 0.401 0.948 0.65 1.557 0.65 0.001 0 0.002 0 0.003 0h-0c0.004 0 0.008 0 0.013 0 0.609 0 1.16-0.249 1.557-0.65l0-0 4.87-4.9c0.402-0.403 0.651-0.96 0.651-1.575s-0.249-1.172-0.651-1.575l0 0c-0.399-0.401-0.951-0.65-1.561-0.65-0.007 0-0.013 0-0.020 0h0.001z"></path>
</symbol>
</defs>
</svg>
